<?xml version="1.0" encoding="utf-8"?>
<!-- Generator: Adobe Illustrator 27.5.0, SVG Export Plug-In . SVG Version: 6.00 Build 0)  -->
<svg version="1.1" xmlns="http://www.w3.org/2000/svg" xmlns:xlink="http://www.w3.org/1999/xlink" x="0px" y="0px"
	 viewBox="0 0 500 500" style="enable-background:new 0 0 500 500;" xml:space="preserve">
<g id="Floor">
	<path id="Floor_00000008110444629654043380000010124771052847290271_" style="fill:#F5F5F5;" d="M100.787,273.288
		c-82.406,47.577-82.404,124.715,0.004,172.292c82.408,47.577,216.016,47.577,298.421,0c82.406-47.577,82.404-124.715-0.004-172.292
		C316.8,225.711,183.193,225.711,100.787,273.288z"/>
</g>
<g id="Plants">
	<g id="Plants_5_">
		<g>
			<g>
				<path style="fill:#BA68C8;" d="M116.623,378.566c-0.158-0.075-0.274-0.215-0.319-0.383c-6.24-23.258-29.29-36.899-39.133-42.725
					c-1.592-0.941-2.848-1.685-3.669-2.251c-3.675-2.532-5.735-6.335-5.507-10.173c0.204-3.458,2.305-6.487,5.765-8.31
					c8.464-4.464,24.446,4.234,36.378,19.793c16.722,21.807,13.853,40.508,13.821,40.695c-0.032,0.196-0.162,0.364-0.343,0.445
					l-6.492,2.915c-0.075,0.033-0.154,0.051-0.233,0.052C116.8,378.625,116.708,378.606,116.623,378.566z M109.193,335.242
					c-11.59-15.113-26.911-23.662-34.879-19.466c-3.128,1.649-4.951,4.252-5.133,7.328c-0.201,3.418,1.666,6.828,4.996,9.122
					c0.787,0.543,2.029,1.277,3.599,2.207c9.873,5.843,32.869,19.453,39.491,42.768l5.556-2.494
					C123.112,372.214,124.408,355.085,109.193,335.242z"/>
			</g>
			<g>
				<path style="fill:#BA68C8;" d="M120.578,376.967c0.027-0.001,0.053-0.002,0.08-0.007c0.325-0.049,0.548-0.353,0.497-0.678
					c-4.247-27.689-27.928-50.996-41.726-54.26c-0.321-0.077-0.641,0.122-0.717,0.442c-0.075,0.32,0.123,0.641,0.442,0.717
					c13.644,3.227,36.797,27.023,40.826,53.282C120.026,376.76,120.286,376.973,120.578,376.967z"/>
			</g>
		</g>
		<g>
			<g>
				<path style="fill:#BA68C8;" d="M123.383,375.709c0.086-0.002,0.173-0.022,0.255-0.063l4.366-2.185
					c0.176-0.088,0.297-0.257,0.324-0.452c0.038-0.276,3.621-28.047-8.476-62.54c-6.162-17.572-19.748-33.409-32.304-37.658
					c-6.038-2.04-11.529-1.482-16.324,1.665c-2.711,1.779-4.222,3.974-4.491,6.524c-0.744,7.049,7.955,15.853,17.165,25.176
					c6.445,6.521,13.108,13.266,16.71,19.613c0.162,0.287,0.526,0.384,0.811,0.224c0.286-0.163,0.386-0.525,0.224-0.811
					c-3.68-6.485-10.4-13.286-16.898-19.863c-9.007-9.116-17.514-17.726-16.829-24.214c0.233-2.207,1.528-4.057,3.961-5.654
					c4.471-2.936,9.615-3.453,15.289-1.531c12.238,4.14,25.512,19.669,31.563,36.924c11.318,32.273,8.81,58.553,8.455,61.677
					l-4.079,2.042c-0.294,0.146-0.413,0.504-0.266,0.798C122.946,375.592,123.161,375.713,123.383,375.709z"/>
			</g>
			<g>
				<path style="fill:#BA68C8;" d="M121.634,358.716c0.014,0,0.029-0.001,0.043-0.002c0.327-0.03,0.568-0.319,0.54-0.646
					c-3.876-43.297-33.579-73.388-41.636-78.044c-0.283-0.163-0.649-0.067-0.813,0.217c-0.164,0.285-0.068,0.649,0.217,0.813
					c7.941,4.588,37.214,34.29,41.046,77.12C121.059,358.488,121.325,358.722,121.634,358.716z"/>
			</g>
		</g>
	</g>
</g>
<g id="Shadows">
	
		<ellipse id="Shadow_00000093873467711856919500000006475955304140880264_" style="fill:#E0E0E0;" cx="279.252" cy="407.063" rx="81.317" ry="46.948"/>
	<path id="Shadow_00000174578599474876657170000001437627216682739603_" style="fill:#E0E0E0;" d="M114.496,382.452
		c21.233,19.536,51.58,39.559,81.526,54.69c2.248,1.136,6.033,1.425,8.426,0.637c41.929-13.806,75.835-34.159,103.49-59.571
		c1.855-1.704,1.708-4.352-0.326-5.838c-29.334-21.419-63.552-36.091-103.019-43.523c-2.475-0.466-6.452-0.247-8.861,0.488
		c-35.399,10.796-62.568,26.303-81.507,46.6C112.506,377.779,112.642,380.747,114.496,382.452z"/>
	
		<ellipse id="Shadow_00000106138677612599414070000015810616328135284116_" style="fill:#E0E0E0;" cx="366.585" cy="401.308" rx="39.934" ry="23.056"/>
</g>
<g id="Character_00000030454399479823460060000014268422864299559864_">
	<g id="Chair_3_">
		<g>
			<polygon style="fill:#37474F;" points="201.901,237.79 195.172,237.984 188.058,153.947 194.787,153.753 			"/>
			<polygon style="fill:#37474F;" points="144.395,269.359 137.666,269.553 130.552,185.516 137.281,185.321 			"/>
		</g>
		<g>
			<path style="fill:#455A64;" d="M146.664,275.772h-11.14l-12.95,99.031l0.013,0c-0.037,0.441,0.227,0.888,0.809,1.224
				c1.096,0.633,2.874,0.633,3.97,0c0.465-0.268,0.72-0.608,0.791-0.958l0.012,0.001L146.664,275.772z"/>
			<path style="fill:#455A64;" d="M213.502,237.183h-11.14l-12.95,99.031l0.013,0.001c-0.036,0.44,0.227,0.888,0.809,1.224
				c1.096,0.633,2.874,0.633,3.97,0c0.465-0.268,0.72-0.608,0.791-0.958l0.012,0.001L213.502,237.183z"/>
			<path style="fill:#455A64;" d="M292.539,378.414l-12.198-102.642h-11.139l17.741,102.91l0.012-0.001
				c0.071,0.35,0.326,0.689,0.791,0.958c1.096,0.634,2.874,0.634,3.97,0c0.583-0.336,0.846-0.784,0.809-1.224L292.539,378.414z"/>
			<path style="fill:#455A64;" d="M220.13,420.219l-9.155-104.711h-11.139l14.699,104.979l0.012,0
				c0.071,0.35,0.326,0.689,0.791,0.957c1.097,0.633,2.874,0.633,3.97,0c0.583-0.336,0.846-0.783,0.809-1.224L220.13,420.219z"/>
		</g>
		<g>
			<path style="fill:#37474F;" d="M281.135,290.125c0.283-0.26,0.55-0.58,0.801-0.931l-1.595-13.422h-11.14l3.635,21.086
				C275.407,294.793,279.036,292.054,281.135,290.125z"/>
			<path style="fill:#37474F;" d="M135.524,275.772l-1.824,13.946c0.429,1.434,1.116,2.764,2.046,3.629
				c2.072,1.906,4.263,3.818,6.549,5.729l4.369-23.304H135.524z"/>
			<path style="fill:#37474F;" d="M212.394,331.744l-1.42-16.237h-11.139l2.691,19.218
				C205.52,333.773,209.45,332.775,212.394,331.744z"/>
			<path style="fill:#37474F;" d="M203.47,240.158c-0.443-0.085-0.958-0.135-1.501-0.163l-11.857,90.868
				c2.034,1.101,3.268,1.748,5.305,2.793l17.165-91.566C209.584,241.392,206.553,240.738,203.47,240.158z"/>
		</g>
		<g>
			<path style="fill:#BA68C8;" d="M203.357,326.168c31.514-10.436,56.998-25.741,77.783-44.84c1.394-1.281,2.503-3.875,2.503-5.768
				v-6.007c0-1.893-1.219-4.359-2.748-5.475c-22.047-16.099-47.764-27.131-77.427-32.718c-1.86-0.35-4.85-0.186-6.66,0.367
				c-26.605,8.117-47.025,19.805-61.259,35.064c-1.292,1.384-2.292,4.084-2.292,5.978v6.008c0,1.893,1.103,4.494,2.496,5.776
				c15.958,14.686,38.766,29.769,61.273,41.144C198.716,326.549,201.56,326.763,203.357,326.168z"/>
			<path style="opacity:0.5;" d="M203.357,326.168c31.514-10.436,56.998-25.741,77.783-44.84c1.394-1.281,2.503-3.875,2.503-5.768
				v-6.007c0-1.893-1.219-4.359-2.748-5.475c-22.047-16.099-47.764-27.131-77.427-32.718c-1.86-0.35-4.85-0.186-6.66,0.367
				c-26.605,8.117-47.025,19.805-61.259,35.064c-1.292,1.384-2.292,4.084-2.292,5.978v6.008c0,1.893,1.103,4.494,2.496,5.776
				c15.958,14.686,38.766,29.769,61.273,41.144C198.716,326.549,201.56,326.763,203.357,326.168z"/>
			<path style="fill:#BA68C8;" d="M283.644,269.553v6.006c0,1.892-1.111,4.484-2.509,5.772
				c-20.773,19.101-46.265,34.404-77.775,44.838c-0.973,0.316-2.276,0.411-3.524,0.274v-95.216c1.289-0.096,2.633-0.055,3.634,0.137
				c29.659,5.581,55.383,16.619,77.432,32.717C282.424,265.193,283.644,267.661,283.644,269.553z"/>
			<path style="opacity:0.3;" d="M283.644,269.553v6.006c0,1.892-1.111,4.484-2.509,5.772
				c-20.773,19.101-46.265,34.404-77.775,44.838c-0.973,0.316-2.276,0.411-3.524,0.274v-95.216c1.289-0.096,2.633-0.055,3.634,0.137
				c29.659,5.581,55.383,16.619,77.432,32.717C282.424,265.193,283.644,267.661,283.644,269.553z"/>
			<path style="fill:#BA68C8;" d="M135.753,271.647c15.958,14.683,38.766,29.732,61.273,41.104c1.69,0.854,4.534,1.071,6.333,0.478
				c31.513-10.376,56.996-25.673,77.781-44.772c1.394-1.281,1.284-3.271-0.245-4.387c-22.047-16.098-47.764-27.125-77.427-32.711
				c-1.86-0.35-4.85-0.186-6.66,0.367c-26.605,8.114-47.025,19.769-61.259,35.024C134.257,268.135,134.359,270.366,135.753,271.647z
				"/>
		</g>
		<g>
			<path style="fill:#BA68C8;" d="M117.369,173.158c21.339-27.429,49.221-43.526,83.644-48.291c1.876-0.26,4.646,0.288,6.184,1.177
				c1.538,0.887,2.785,3.142,2.785,5.035v25.302c0,1.893-1.525,3.6-3.4,3.859c-34.424,4.766-62.305,20.864-83.644,48.293
				c-1.162,1.494-3.32,2.008-4.858,1.12c-1.538-0.888-2.785-3.143-2.785-5.036v-25.301
				C115.295,177.422,116.206,174.652,117.369,173.158z"/>
			<path style="fill:#BA68C8;" d="M140.063,190.184l-24.205-13.971c-0.349,1.078-0.563,2.191-0.563,3.103v25.301
				c0,1.894,1.247,4.148,2.785,5.036c1.538,0.888,3.696,0.374,4.858-1.12C128.242,201.715,133.951,195.601,140.063,190.184z"/>
			<path style="opacity:0.5;" d="M140.063,190.184l-24.205-13.971c-0.349,1.078-0.563,2.191-0.563,3.103v25.301
				c0,1.894,1.247,4.148,2.785,5.036c1.538,0.888,3.696,0.374,4.858-1.12C128.242,201.715,133.951,195.601,140.063,190.184z"/>
			<path style="fill:#BA68C8;" d="M122.939,208.531c21.34-27.429,49.221-43.526,83.645-48.292c1.875-0.26,3.399-1.966,3.399-3.859
				v-25.302c0-1.893-1.525-3.256-3.4-2.996c-34.424,4.766-62.305,20.863-83.644,48.293c-1.162,1.494-2.073,4.263-2.073,6.156v25.302
				C120.865,209.725,121.777,210.025,122.939,208.531z"/>
			<path style="opacity:0.3;" d="M122.939,208.531c21.34-27.429,49.221-43.526,83.645-48.292c1.875-0.26,3.399-1.966,3.399-3.859
				v-25.302c0-1.893-1.525-3.256-3.4-2.996c-34.424,4.766-62.305,20.863-83.644,48.293c-1.162,1.494-2.073,4.263-2.073,6.156v25.302
				C120.865,209.725,121.777,210.025,122.939,208.531z"/>
		</g>
	</g>
	<g id="Character_00000126315294553237758050000014623047700176849337_">
		<g>
			<g>
				<path style="fill:#455A64;" d="M271.872,233.421c-15.483-6.355-28.56-11.321-33.305-17.497l-41.901,9.055l-2.516,17.184
					l42.362,30.877l21.628,3.605l55.257-20.98C304.152,245.891,284.151,238.461,271.872,233.421z"/>
				<path style="fill:#37474F;" d="M279.8,259.416c-8.717,0.972-17.191,6.876-22.801,12.1l-7.568-0.876l-21.757-19.618
					c0,0,10.808-10.569,9.041-21.849l-41.404,13.835l41.2,30.031l21.628,3.605l20.152-7.652L279.8,259.416z"/>
			</g>
			<g>
				<g>
					<polygon points="255.96,418.73 264.309,415.731 261.741,409.864 256.533,414.629 					"/>
					<path style="fill:#263238;" d="M247.772,403.055c0,0-0.46,5.565-0.576,7.319c-0.115,1.755,6.99,7.406,8.764,8.355l0.573-4.101
						c1.508,1.65,2.389,3.715,3.987,6.764c1.332,2.542,2.996,7.326,6.748,10.657c5.57,4.945,14.37,7.614,23.397,8.196
						c9.027,0.582,14.255-1.577,16.872-3.535c2.617-1.958,3.487-4.309,2.901-6.702C309.853,427.615,247.772,403.055,247.772,403.055
						z"/>
					<path style="fill:#37474F;" d="M308.874,424.94c0,0-16.017-15.823-21.359-22.202c-4.084-4.876-9.108-12.186-9.641-17.541
						l-30.13,2.336c-0.122,2.146-0.309,4.182-0.515,5.753c-0.448,3.413-0.788,8.056,1.324,11.153
						c0.853,1.251,1.964,2.308,3.082,3.299c2.286,2.026,4.914,3.743,6.919,6.087c2.848,3.331,4.929,10.366,8.476,14.941
						c3.547,4.575,16.46,8.731,23.77,9.351c14.727,1.25,24.534-6.766,19.186-12.116C309.647,425.662,309.268,425.305,308.874,424.94
						z"/>
				</g>
				<path style="fill:#455A64;" d="M148.761,233.549c1.954,22.635,4.448,39.485,23.961,52.437
					c19.514,12.952,38.3,22.754,44.606,25.971c11.406,5.819,16.352,7.267,16.145,13.925c-0.204,6.55,0.856,14.56,3.512,25.017
					c2.656,10.458,9.907,35.325,9.907,35.325s5.403,6.748,17.726,5.943c12.322-0.804,13.642-7.367,13.642-7.367
					s-1.424-54.7-2.497-70.789s-7.563-23.37-23.909-37.148c-14.352-12.098-32.057-26.102-32.057-26.102s20.209-14.806,18.77-33.54
					L148.761,233.549z"/>
				<path style="fill:#263238;" d="M244.646,379.26l2.247,10.581c0,0,3.928,4.92,17.018,3.523c13-1.388,14.703-6.398,14.703-6.398
					l-0.354-10.983c0,0-2.302,6.165-14.806,7.851C249.134,385.766,244.646,379.26,244.646,379.26z"/>
				<g>
					<path style="fill:#37474F;" d="M209.327,256.093c9.472,6.477,18.76,13.217,27.808,20.278
						c4.542,3.512,8.951,7.197,13.251,11.015c4.536,4.118,9.127,8.309,12.616,13.389c2.917,4.688,3.145,10.461,4.023,15.766
						c0.734,5.702,1.316,11.414,1.746,17.137c0.878,11.441,1.512,22.897,1.819,34.366c-0.851-11.434-1.705-22.869-2.81-34.279
						c-0.585-5.699-1.13-11.402-1.921-17.067c-0.899-5.144-1.124-10.715-3.938-15.225c-6.896-9.549-16.452-16.793-25.404-24.329
						C227.623,269.916,218.475,263.003,209.327,256.093L209.327,256.093z"/>
				</g>
			</g>
			<path style="opacity:0.2;" d="M275.764,314.013c-0.96-14.392-6.261-21.739-19.066-32.99c-7.613,7.256-16.199,16.032-21.223,21.23
				c-0.004-0.64,0.042-0.981,0.042-0.981l-6.04,6.391c0,0-0.018,0.183-0.035,0.513c-1.699,0.648-3.547,1.259-4.517,1.661
				c-2.11,0.874-4.038,1.702-5.573,3.144c9.968,4.993,14.316,6.653,14.122,12.903c-0.203,6.55,0.856,14.56,3.512,25.017
				c0.072,0.285,0.15,0.584,0.228,0.889c0.385-1.194,0.747-2.268,1.072-3.154c1.61-4.404,4.112-9.905,7.067-13.752
				c1.137,0.493,1.808,0.618,1.808,0.618l8.404-5.63c0,0-0.209-0.026-0.593-0.132c5.428-3.525,12.99-8.477,20.913-13.79
				C275.843,315.256,275.803,314.605,275.764,314.013z"/>
			<g>
				<g>
					<polygon points="206.929,326.573 213.698,332.308 217.498,327.152 210.768,325.021 					"/>
					<path style="fill:#263238;" d="M216.417,311.65c0,0-5.051,2.382-6.628,3.158c-1.577,0.777-2.924,9.755-2.86,11.766l3.839-1.552
						c-0.676,2.13-2.024,3.926-3.867,6.833c-1.536,2.423-4.849,6.255-5.86,11.169c-1.501,7.296,0.583,16.252,4.589,24.363
						c4.005,8.111,8.487,11.561,11.491,12.849c3.004,1.289,5.475,0.868,7.255-0.835C226.156,377.698,216.417,311.65,216.417,311.65z
						"/>
					<path style="fill:#37474F;" d="M227.984,375.514c0,0,5.705-21.78,8.563-29.594c2.184-5.974,6.007-13.978,10.379-17.115
						l-16.874-24.343c-1.92,0.967-5.401,2.052-6.866,2.658c-3.181,1.317-5.951,2.522-7.578,5.898
						c-0.658,1.364-1.018,2.855-1.318,4.318c-0.613,2.992-0.788,6.127-1.816,9.035c-1.462,4.131-6.517,9.449-8.708,14.807
						c-2.191,5.359,0.66,18.621,3.774,25.263c6.275,13.382,18.117,17.873,20.081,10.568
						C227.745,376.544,227.865,376.038,227.984,375.514z"/>
				</g>
				<g>
					<path style="fill:#455A64;" d="M313.398,255.665c-28.92-1.543-37.093,2.712-55.758,20.112
						c-12.042,11.226-28.21,28.247-28.21,28.247s-0.843,7.256,3.35,16.52c4.193,9.263,12.261,11.765,12.261,11.765
						s59.314-37.892,67.152-47.155C320.03,275.89,322.643,265.439,313.398,255.665z"/>
					<path style="fill:#37474F;" d="M310.613,254.555c2.047,3.156,3.076,7.018,2.876,10.784
						c-0.716,11.7-10.115,20.553-18.922,27.087c-11.856,8.774-24.295,17.98-36.426,26.395c5.006-4.034,12.531-9.866,17.72-13.853
						c8.699-6.948,18.363-13.177,26.523-20.672C310.331,276.693,316.515,265.191,310.613,254.555L310.613,254.555z"/>
					<path style="fill:#37474F;" d="M279.789,259.39c-10.095,5.107-17.982,13.406-26.139,21.068
						c-5.853,5.648-12.281,11.979-18.133,17.698l-6.087,5.869c7.312-8.359,15.359-16.771,23.324-24.497
						C260.939,271.892,269.217,263.612,279.789,259.39L279.789,259.39z"/>
					<path style="fill:#263238;" d="M233.778,298.556l-6.04,6.391c0,0-1.061,10.302,5.554,18.588
						c6.614,8.287,12.129,9.25,12.129,9.25l8.404-5.63c0,0-6.123-0.754-13.574-11.09C232.8,305.728,233.778,298.556,233.778,298.556
						z"/>
				</g>
			</g>
		</g>
		<g>
			<g>
				<path style="fill:#E0E0E0;" d="M224.176,121.743c14.133,1.794,16.273,5.978,26.569,21.601
					c4.815,7.307,10.949,16.568,10.949,16.568s25.154-9.439,31.542-11.838c2.149-0.807,2.668,0.309,2.668,0.309l-1.216,0.535
					c-4.175,5.489-1.962,18.019,3.084,19.842l1.985-1.516c0.414,1.656-0.525,4.779-1.322,5.663
					c-2.997,3.321-9.722,7.407-26.943,18.568c-10.176,6.595-16.438,5.57-28.1-8.413c-11.115-13.326-20.154-27.267-20.154-27.267
					L224.176,121.743z"/>
			</g>
			<path style="fill:#F0F0F0;" d="M300.699,166.525l-2.927,2.236c0,0-3.826-0.267-5.154-8.454
				c-1.328-8.187,2.071-11.388,2.071-11.388l4.314-1.898c0,0-2.062,5.708-1.734,10.692
				C297.595,162.697,300.699,166.525,300.699,166.525z"/>
			<path id="Chest" style="fill:#F0F0F0;" d="M170.549,123.955c-3.78,1.768-18.745,10.74-25.115,15.016
				c0,0,0.336,8.206,0.214,24.889c-0.067,9.106,0.447,20.824,1.38,32.538c1.723,21.617,2.395,33.93,4.268,49.886
				c0,0,20.511,8.086,54.506-3.452c31.703-10.76,33.775-25.609,33.775-25.609c-0.572-17.755-5.586-29.638-5.118-52.39
				c0.532-25.861-1.806-38.8-10.544-43.09l-27.344-3.747L170.549,123.955z"/>
			<g id="Head">
				<g>
					<g id="Head_00000031191297279434510840000003754147721117846183_">
						<g id="Head_00000004528718910488734330000014417659682296752301_">
							<g>
								<g>
									<g id="XMLID_00000057852323541294243570000015955470592720781748_">
										<g id="XMLID_00000057124087777030176180000011726462404870330809_">
											<path style="fill:#37474F;" d="M170.907,69.023c2.924-5.172,11.66-4.747,11.66-4.747
												c2.173-5.653,11.662-11.297,23.243-8.237c11.581,3.059,16.847,7.469,19.581,15.119c2.733,7.65-1.081,12.207-1.081,12.207
												c-17.97,11.082-41.172,29.339-47.86,27.326c-0.626-5.081-2.476-8.169-3.969-12.073
												c-2.308-6.038-4.202-7.752-5.096-14.883C166.49,76.604,168.757,72.826,170.907,69.023z"/>
											<path style="fill:#FFA8A7;" d="M174.717,103.784c0.28,0.155,0.568,0.294,0.864,0.415c1.641,0.67,4.536,1.034,5.896-1.689
												c0.282,3.705-2.957,6.477-5.028,8.181l-0.98,6.314c0,0,1.985,7.776,6.551,12.531c6.46,6.725,14.34,10.849,19.148,13.147
												c3.76-7.991,4.715-17.165,1.015-18.597l0.497-2.735c0,0,3.811,1.255,7.738,0.799c4.896-0.569,7.538-2.539,10.105-7.369
												c2.722-5.121,4.22-11.918,4.611-17.451c0.404-5.72-1.05-11.779-0.562-18.781c-5.38-6.041-26.394-6.364-35.014-0.077
												c0.055,3.909,0.393,8.343-2.487,11.383c-0.584,0.617-1.259,1.196-2.081,1.411c-1.596,0.419-2.458-1.1-3.251-2.19
												c-1.113-1.529-2.755-2.382-4.671-2.332c-1.519,0.039-2.991,0.623-4.25,1.475c-0.578,0.391-1.122,0.845-1.537,1.405
												c-0.632,0.854-0.932,1.909-1.109,2.956c-0.457,2.705-0.141,5.601,1.247,7.967
												C172.206,101.886,173.356,103.029,174.717,103.784z"/>
										</g>
									</g>
								</g>
							</g>
						</g>
						<path style="fill:#F28F8F;" d="M183.703,103.297c2.029,7.714,5.286,14.34,18.977,18.054l-0.497,2.735
							c0,0-8.231-2.119-13.591-6.313C183.887,114.092,183.554,107.509,183.703,103.297z"/>
						<path style="fill:#37474F;" d="M207.766,103.438c-0.818,0.118-1.639,0.238-2.413,0.468c-2.5,0.744-4.452,2.791-5.635,5.116
							c-1.134,2.23-1.414,4.713-1.575,7.19c-0.1,1.531,0.28,2.874,1.195,4.118c0.807,1.096,2.436,1.382,3.695,1.675
							c3.572,0.832,7.387,0.64,10.841-0.606c2.444-0.882,4.731-2.531,5.8-4.952c1.075-2.434,1.141-5.196,1.159-7.812
							c0.007-1.038,0.004-2.113-0.42-3.061c-0.518-1.158-1.619-1.981-2.816-2.402c-1.196-0.421-2.489-0.482-3.757-0.454
							c-1.563,0.035-3.124,0.201-4.66,0.495C208.718,103.301,208.242,103.369,207.766,103.438z"/>
						<path style="fill:#FFA8A7;" d="M206.896,108.767c-1.268,0.267-2.571,0.444-3.619,1.181c-1.201,0.845-1.851,2.318-1.977,3.782
							c-0.08,0.93,0.061,1.946,0.704,2.623c0.55,0.579,1.221,0.934,2.002,1.1c0.684,0.146,1.389,0.156,2.088,0.166
							c0.641,0.009,1.558,0.073,2.081-0.371c0.515-0.436,0.692-1.18,0.829-1.804c0.158-0.719,0.36-1.429,0.604-2.124
							c0.329-0.936,1.214-1.505,2.212-1.519c1.592-0.022,0.827,2.459,0.889,3.433c0.085,1.328,1.425,1.346,2.406,0.937
							c1.227-0.512,2.382-0.99,3.078-2.213c0.57-1,0.762-2.174,0.802-3.324c0.026-0.76,0-1.726-0.506-2.349
							c-0.467-0.575-1.293-0.663-1.987-0.671c-0.759-0.008-1.539-0.007-2.244-0.288c-0.887-0.353-1.596-1.062-2.172-1.803
							c0.218,0.28-1.541,1.689-1.74,1.851c-0.713,0.581-1.641,0.921-2.532,1.173C207.512,108.632,207.205,108.702,206.896,108.767z"
							/>
						<path style="fill:#B16668;" d="M214.035,110.134c-0.38-0.316-0.975-0.412-1.45-0.501c-0.453-0.085-0.893-0.109-1.352-0.077
							c-0.411,0.029-0.831,0.085-1.226,0.207c-0.248,0.077-0.456,0.226-0.678,0.357c-0.198,0.117-0.392,0.229-0.579,0.363
							c-0.065,0.047-0.075,0.254,0.04,0.229c0.21-0.045,0.42-0.094,0.631-0.129c0.267-0.043,0.539-0.035,0.806-0.074
							c0.414-0.059,0.824-0.129,1.243-0.151c0.381-0.02,0.765-0.017,1.146-0.015c0.278,0.002,0.555,0.021,0.829,0.061
							c0.194,0.028,0.371,0.071,0.563,0.017C214.113,110.393,214.104,110.191,214.035,110.134z"/>
						<path style="fill:#F28F8F;" d="M207.414,86.492c5.704-0.1,10.899,13.882,10.899,13.882l-8.172,2.772L207.414,86.492z"/>
					</g>
					<path style="fill:#455A64;" d="M227.608,67.116c13.995,10.345,12.104,23.616-4.223,29.642
						c-16.327,6.026-40.907,2.524-54.902-7.821c-13.995-10.345-12.104-23.616,4.223-29.642
						C189.033,53.269,213.614,56.77,227.608,67.116z"/>
					<g>
						<path style="fill:#37474F;" d="M171.247,72.746c0,0,5.259-24.829,5.81-26.062c0.551-1.233,10.58-4.173,25.63-1.804
							c15.049,2.369,20.148,7.326,20.78,10.055c0.632,2.729,1.334,26.792,1.334,26.792s-9.997,7.291-29.047,3.876
							C171.31,81.222,171.247,72.746,171.247,72.746z"/>
						<path style="fill:#455A64;" d="M220.791,54.322c-1.325-2.444-8.652-6.175-17.703-7.721
							c-9.051-1.546-18.401-0.799-21.477,0.214c-3.076,1.013,4.69,5.481,11.811,7.634c7.121,2.154,16.413,3.564,21.379,3.067
							C219.768,57.019,221.839,56.254,220.791,54.322z"/>
						<path style="fill:#BA68C8;" d="M224.8,81.726c0,0-0.071-2.42-0.187-5.809c-3.312,2.924-16.591,6.139-29.611,3.52
							c-13.02-2.619-19.443-7.944-22.539-12.39l0,0c-0.712,3.319-1.216,5.698-1.216,5.698s-1.517,8.456,22.844,13.27
							C217.928,90.726,224.8,81.726,224.8,81.726z"/>
					</g>
				</g>
				<g id="XMLID_00000124852348685104871370000004033006089010688189_">
					<g>
						<g>
							<path style="fill:#E0E0E0;" d="M201.168,142.683c-6.112-3.538-8.545-9.812-10.915-11.204
								c-2.37-1.393-3.429-2.602-8.415-6.478c-4.986-3.876-6.369-7.995-6.369-7.995l0.345-2.224
								c-1.792,0.252-2.804,2.415-4.542,4.551c-1.738,2.137-5.16,6.52-5.16,6.52s3.391,7.86,11.311,13.79
								c7.921,5.929,15.236,8.352,15.236,8.352s-2.11-7.325-0.116-7.878C193.639,139.812,196.011,141.877,201.168,142.683z"/>
						</g>
						<g>
							<path style="fill:#E0E0E0;" d="M209.711,143.829c0,0-2.792-6.129-4.056-6.958c-1.264-0.819-2.165,4.218-4.491,5.816
								c0.738-3.024,3.155-10.326,1.021-18.6l0.395-2.185c0.152,0.03,0.303,0.071,0.455,0.101c1.821,0.425,3.712,0.576,5.583,0.465
								c0.01,0,0.01,0,0.01,0c0.849,0.799,1.699,3.712,2.872,10.063C212.685,138.984,209.711,143.829,209.711,143.829z"/>
						</g>
					</g>
				</g>
				<path style="fill:#37474F;" d="M241.4,217.876c0,0-5.21,17.87-31.4,26.39c-45.69,14.86-60.703,3.261-60.703,3.261
					s-3.202-44.585-4.603-63.045c-2.06-27.32,0.735-45.506,0.735-45.506l24.866-18.43c-0.74,11.56,37.694,39.58,37.694,39.58
					s2.14-15.94,1.66-26.68c-0.2-4.67-0.561-8.488-1.031-10.978c1.77-0.11,3.477-0.468,5.135-1.049
					c1.096-0.384,1.94-0.817,2.988-1.504l8.157,1.83c0,0,7.89,2.63,9.83,18.92c1.95,16.3,1.71,28.27,1.71,39.64
					S241.4,217.876,241.4,217.876z"/>
			</g>
			<g id="Arm_and_guitar_00000044900519971889953680000008197695363858311063_">
				<g>
					<g id="Guitar_00000163774075955380342160000004145850021038298289_">
						<g>
							<path style="fill:#BA68C8;" d="M235.431,159.079c-0.193,0.044-0.385,0.093-0.575,0.151c-0.001,0.007-0.007-0.001-0.007-0.001
								c-6.526,1.904-11.564,12.667-12.714,16.255c-2.079,6.23-3.953,11.944-9.954,17.734c-5.066,3.72-10.641,5.684-15.87,9.45
								c-4.746,3.184-8.774,7.725-12.001,16.504c-8.107,22.484-3.786,39.48,4.125,56.75c3.592,7.998,9.701,19.953,17.558,21.274
								c6.966,0.911,21.656,2.073,23.542,2.052c3.012-0.064,6.307-1.44,9.978-4.453c13.381-10.971,14.814-38.074,18.967-47.206
								c4.153-9.132,7.108-11.501,10.733-14.211c3.618-2.711,20.796-21.716,5.105-55.936c-3.895-8.493-7.623-13.155-11.061-15.26
								c-0.831-0.507-2.39-1.245-4.233-1.413C250.819,160.328,239.222,158.463,235.431,159.079z"/>
							<path style="fill:#BA68C8;" d="M180.264,236.785c-1.348,14.342,2.458,26.676,8.171,39.136
								c1.448,3.16,2.935,6.177,4.473,8.904c0.064,0.112,0.134,0.225,0.198,0.338c0.099,0.169,0.198,0.338,0.29,0.5
								c3.836,6.416,7.959,10.766,12.827,11.572c0.013,0.001,0.027,0.002,0.039,0.01c0.04,0.004,0.079,0.007,0.125,0.018
								c0.092,0.015,0.191,0.03,0.291,0.039c6.917,0.899,20.718,1.872,22.215,1.936c3.182,0.138,6.681-1.213,10.619-4.444
								c6.838-5.603,10.358-16.06,12.719-26.171l-19.408-11.493l-31.015-18.368L180.264,236.785z"/>
							<path style="opacity:0.1;" d="M180.264,236.785c-1.348,14.342,2.458,26.676,8.171,39.136c1.448,3.16,2.935,6.177,4.473,8.904
								c0.064,0.112,0.134,0.225,0.198,0.338c0.099,0.169,0.198,0.338,0.29,0.5c3.836,6.416,7.959,10.766,12.827,11.572
								c0.013,0.001,0.027,0.002,0.039,0.01c0.04,0.004,0.079,0.007,0.125,0.018c0.092,0.015,0.191,0.03,0.291,0.039
								c6.917,0.899,20.718,1.872,22.215,1.936c3.182,0.138,6.681-1.213,10.619-4.444c6.838-5.603,10.358-16.06,12.719-26.171
								l-19.408-11.493l-31.015-18.368L180.264,236.785z"/>
							<path style="opacity:0.1;" d="M184.439,266.224c1.166,3.249,2.515,6.468,3.996,9.698c1.448,3.16,2.935,6.177,4.473,8.904
								c0.064,0.112,0.134,0.225,0.198,0.338c3.912,6.69,8.124,11.248,13.117,12.072c0.105,0.016,0.64,0.089,0.793,0.103
								c7.283,0.924,20.199,1.766,21.432,1.874c3.302,0.289,6.946-1.036,11.064-4.418c1.504-1.225,2.836-2.705,4.035-4.345
								l-16.956-10.042l-20.577-12.19L184.439,266.224z"/>
							<path id="XMLID_00000170994659567031359400000010632404219014360237_" style="fill:#BA68C8;" d="M209.84,277.817
								c7.914,17.266,16.288,27.954,29.673,16.98c13.385-10.974,14.813-38.08,18.966-47.211c4.153-9.131,7.107-11.502,10.73-14.209
								c3.623-2.708,20.797-21.712,5.111-55.933c-15.686-34.221-28.725-6.195-30.779-0.066c-2.055,6.13-3.785,11.155-9.365,17.175
								c-5.579,6.02-20.352,4.029-28.46,26.512C197.607,243.55,201.925,260.55,209.84,277.817z"/>
							<path id="XMLID_00000109733167820461055150000017819277383698037133_" style="fill:#BA68C8;" d="M209.84,277.817
								c7.914,17.266,16.288,27.954,29.673,16.98c13.385-10.974,14.813-38.08,18.966-47.211c4.153-9.131,7.107-11.502,10.73-14.209
								c3.623-2.708,20.797-21.712,5.111-55.933c-15.686-34.221-28.725-6.195-30.779-0.066c-2.055,6.13-3.785,11.155-9.365,17.175
								c-5.579,6.02-20.352,4.029-28.46,26.512C197.607,243.55,201.925,260.55,209.84,277.817z"/>
							<path id="XMLID_00000176750396481556288620000010348434809844208303_" style="opacity:0.3;fill:#FFFFFF;" d="M209.84,277.817
								c7.914,17.266,16.288,27.954,29.673,16.98c13.385-10.974,14.813-38.08,18.966-47.211c4.153-9.131,7.107-11.502,10.73-14.209
								c3.623-2.708,20.797-21.712,5.111-55.933c-15.686-34.221-28.725-6.195-30.779-0.066c-2.055,6.13-3.785,11.155-9.365,17.175
								c-5.579,6.02-20.352,4.029-28.46,26.512C197.607,243.55,201.925,260.55,209.84,277.817z"/>
							<path style="fill:#37474F;" d="M257.635,196.117c-4.48-9.606-11.515-7.263-17.278-2.193
								c-3.108,2.734-6.039,5.848-8.758,9.291c-3.725,4.717-4.608,13.526-1.982,19.157l1.162,2.492
								c2.524,5.413,7.348,5.835,10.774,0.942l17.963-25.656L257.635,196.117z"/>
							<path style="fill:#BA68C8;" d="M263.747,196.755c-4.047-7.744-11.649-8.409-16.979-1.485
								c-5.33,6.924-6.37,18.815-2.322,26.559c4.047,7.744,11.649,8.409,16.979,1.485
								C266.754,216.389,267.794,204.499,263.747,196.755z"/>
							<path style="opacity:0.6;fill:#FFFFFF;" d="M263.747,196.755c-4.047-7.744-11.649-8.409-16.979-1.485
								c-5.33,6.924-6.37,18.815-2.322,26.559c4.047,7.744,11.649,8.409,16.979,1.485
								C266.754,216.389,267.794,204.499,263.747,196.755z"/>
							<path style="fill:#455A64;" d="M262.5,197.995c-3.488-6.95-10.078-7.526-14.719-1.287c-4.641,6.239-5.576,16.93-2.088,23.88
								c3.488,6.95,10.078,7.526,14.719,1.287C265.053,215.636,265.987,204.945,262.5,197.995z"/>
							<g>
								<path style="fill:#BA68C8;" d="M262.013,198.385c-3.261-6.691-9.449-7.232-13.822-1.208
									c-4.373,6.023-5.274,16.331-2.013,23.022c3.261,6.691,9.449,7.232,13.822,1.209
									C264.373,215.383,265.274,205.076,262.013,198.385z"/>
								<path style="opacity:0.6;fill:#FFFFFF;" d="M262.013,198.385c-3.261-6.691-9.449-7.232-13.822-1.208
									c-4.373,6.023-5.274,16.331-2.013,23.022c3.261,6.691,9.449,7.232,13.822,1.209
									C264.373,215.383,265.274,205.076,262.013,198.385z"/>
							</g>
						</g>
						<g>
							<g>
								<path style="fill:#37474F;" d="M226.95,230.243l14.198,30.443l-3.264,4.662l-2.154-0.188l-0.903-1.937
									c-0.77-1.651-1.865-2.753-3.107-3.14c-0.251-0.078-0.466-0.316-0.621-0.648l-7.29-15.631
									c-0.154-0.331-0.245-0.749-0.238-1.194c0.033-2.208-0.365-4.305-1.135-5.956l-0.904-1.937l3.264-4.663L226.95,230.243z"/>
								<path style="fill:#263238;" d="M231.357,259.835c-0.098-0.108-0.186-0.242-0.259-0.399l-7.29-15.631
									c-0.077-0.166-0.139-0.354-0.18-0.556l2.735,0.239l8.761,16.677L231.357,259.835z"/>
								<path style="fill:#455A64;" d="M226.95,230.243l-3.264,4.663l0.903,1.937c0.77,1.651,1.167,3.748,1.135,5.956
									c-0.007,0.446,0.084,0.863,0.238,1.194l7.29,15.631c0.154,0.331,0.37,0.57,0.621,0.648c1.242,0.387,2.337,1.488,3.107,3.139
									l0.903,1.937l3.265-4.663L226.95,230.243z"/>
							</g>
							<g>
								<g>
									<g>
										<g>
											<path style="fill:#F0F0F0;" d="M340.081,112.145l0.38,0.807c0.127,0.267,0.077,0.617-0.181,0.988
												c-0.514,0.738-1.656,1.274-2.552,1.198c-0.455-0.039-0.756-0.229-0.878-0.502l-0.376-0.8L340.081,112.145z"/>
											<path style="fill:#E0E0E0;" d="M337.348,114.33c-0.896-0.076-1.205-0.736-0.691-1.473
												c0.514-0.738,1.656-1.274,2.552-1.198c0.896,0.076,1.205,0.736,0.691,1.473
												C339.386,113.87,338.244,114.406,337.348,114.33z"/>
											<path style="opacity:0.1;" d="M337.348,114.33c-0.896-0.076-1.205-0.736-0.691-1.473
												c0.514-0.738,1.656-1.274,2.552-1.198c0.896,0.076,1.205,0.736,0.691,1.473
												C339.386,113.87,338.244,114.406,337.348,114.33z"/>
										</g>
										<path style="fill:#455A64;" d="M337.119,108.334l1.968,4.193c0.059,0.125,0.036,0.289-0.085,0.463
											c-0.241,0.346-0.777,0.597-1.197,0.562c-0.213-0.018-0.354-0.107-0.412-0.235l-1.966-4.189L337.119,108.334z"/>
										<path style="fill:#37474F;" d="M335.837,109.359c-0.42-0.036-0.565-0.345-0.324-0.691
											c0.241-0.346,0.777-0.598,1.197-0.562c0.42,0.036,0.565,0.345,0.324,0.691
											C336.793,109.143,336.257,109.395,335.837,109.359z"/>
									</g>
									<g>
										<g>
											<path style="fill:#F0F0F0;" d="M336.322,118.946l0.38,0.808c0.127,0.267,0.077,0.617-0.181,0.988
												c-0.514,0.737-1.656,1.274-2.552,1.198c-0.455-0.039-0.756-0.229-0.878-0.502l-0.376-0.8L336.322,118.946z"/>
											<path style="fill:#E0E0E0;" d="M333.589,121.131c-0.896-0.076-1.205-0.736-0.691-1.473
												c0.514-0.738,1.656-1.274,2.552-1.198c0.896,0.076,1.205,0.736,0.691,1.473
												C335.627,120.671,334.484,121.207,333.589,121.131z"/>
											<path style="opacity:0.1;" d="M333.589,121.131c-0.896-0.076-1.205-0.736-0.691-1.473
												c0.514-0.738,1.656-1.274,2.552-1.198c0.896,0.076,1.205,0.736,0.691,1.473
												C335.627,120.671,334.484,121.207,333.589,121.131z"/>
										</g>
										<path style="fill:#455A64;" d="M333.36,115.135l1.967,4.192c0.06,0.125,0.036,0.29-0.085,0.463
											c-0.241,0.346-0.777,0.597-1.197,0.562c-0.213-0.018-0.355-0.107-0.412-0.235l-1.966-4.189L333.36,115.135z"/>
										<path style="fill:#37474F;" d="M332.078,116.16c-0.42-0.036-0.565-0.345-0.324-0.691c0.241-0.346,0.777-0.597,1.197-0.562
											c0.42,0.036,0.565,0.345,0.324,0.691C333.034,115.944,332.498,116.195,332.078,116.16z"/>
									</g>
									<g>
										<g>
											<path style="fill:#F0F0F0;" d="M332.429,125.402l0.38,0.807c0.127,0.267,0.077,0.617-0.181,0.988
												c-0.514,0.737-1.656,1.274-2.552,1.198c-0.455-0.039-0.756-0.229-0.878-0.502l-0.376-0.8L332.429,125.402z"/>
											<path style="fill:#E0E0E0;" d="M329.695,127.586c-0.896-0.076-1.205-0.736-0.691-1.473
												c0.514-0.738,1.656-1.274,2.552-1.198c0.896,0.076,1.206,0.736,0.692,1.474
												C331.733,127.126,330.591,127.662,329.695,127.586z"/>
											<path style="opacity:0.1;" d="M329.695,127.586c-0.896-0.076-1.205-0.736-0.691-1.473
												c0.514-0.738,1.656-1.274,2.552-1.198c0.896,0.076,1.206,0.736,0.692,1.474
												C331.733,127.126,330.591,127.662,329.695,127.586z"/>
										</g>
										<path style="fill:#455A64;" d="M329.466,121.591l1.967,4.192c0.059,0.125,0.036,0.29-0.085,0.463
											c-0.241,0.346-0.777,0.597-1.197,0.562c-0.213-0.018-0.354-0.107-0.411-0.235l-1.966-4.189L329.466,121.591z"/>
										<path style="fill:#37474F;" d="M328.184,122.615c-0.42-0.036-0.565-0.345-0.324-0.691
											c0.241-0.346,0.777-0.597,1.197-0.562c0.42,0.036,0.565,0.345,0.324,0.691
											C329.14,122.399,328.604,122.651,328.184,122.615z"/>
									</g>
									<path style="fill:#BA68C8;" d="M333.721,87.081c0.074,0.007,0.15,0.029,0.229,0.07c0.172,0.089,3.927,7.663,4.146,8.13
										c0.569,1.213,0.878,9.029,0.792,11.129c-0.036,0.894-0.26,1.833-0.807,2.546c-1.59,2.073-2.327,2.651-5.889,8.347
										c-1.885,3.014-4.349,8.136-5.243,10.024c-0.22,0.465-0.616,0.905-1.083,0.877c-0.156-0.01-3.249-0.287-3.696-0.314
										c-0.156-0.009-0.319-0.071-0.487-0.202c-0.202-0.158-0.448-0.301-0.71-0.435c-0.346,0.163-0.662,0.384-0.898,0.723
										l-3.697-0.314l-2.23-4.75l-2.23-4.75c2.182-3.133,1.986-9.278,1.806-10.741c-0.18-1.463,0.006-2.302,0.578-2.78
										c0.572-0.478,4.241-3.562,7.23-6.844c3.037-3.334,6.024-7.592,6.781-8.91c0.667-1.16,1.104-2.155,1.691-2.121
										C330.085,86.769,333.424,87.055,333.721,87.081z"/>
									<path style="opacity:0.2;" d="M326.95,127.328c-0.22,0.465-0.616,0.905-1.083,0.877c-0.156-0.01-3.249-0.287-3.696-0.314
										c-0.155-0.009-0.319-0.071-0.487-0.202c-0.202-0.158-0.448-0.301-0.71-0.435c-0.346,0.163-0.662,0.384-0.898,0.723
										l-3.697-0.314l-2.23-4.75l-2.23-4.75c2.182-3.133,1.986-9.278,1.806-10.741c-0.091-0.738-0.087-1.316,0.011-1.771
										l4.33,0.368l9.622,19.771C327.393,126.398,327.133,126.942,326.95,127.328z"/>
									<path id="XMLID_00000173130492421849934830000013791947134469647242_" style="fill:#BA68C8;" d="M317.845,123.225
										l2.229,4.75c1.164-1.672,3.99-1,5.305,0.027c0.67,0.523,1.277-0.055,1.57-0.674c0.894-1.888,3.358-7.01,5.243-10.024
										c3.561-5.696,4.299-6.274,5.889-8.347c0.547-0.713,0.771-1.653,0.807-2.546c0.086-2.1-0.223-9.916-0.792-11.129
										c-0.617-1.314-3.822-7.962-4.146-8.13c-0.72-0.374-1.181,0.731-1.939,2.049c-0.758,1.317-3.744,5.575-6.781,8.909
										c-2.989,3.282-6.658,6.367-7.23,6.844c-0.572,0.478-0.758,1.317-0.578,2.78c0.18,1.463,0.376,7.608-1.806,10.741
										L317.845,123.225z"/>
									<path id="XMLID_00000176016423200924595890000000547695626290628245_" style="opacity:0.3;fill:#FFFFFF;" d="
										M317.845,123.225l2.229,4.75c1.164-1.672,3.99-1,5.305,0.027c0.67,0.523,1.277-0.055,1.57-0.674
										c0.894-1.888,3.358-7.01,5.243-10.024c3.561-5.696,4.299-6.274,5.889-8.347c0.547-0.713,0.771-1.653,0.807-2.546
										c0.086-2.1-0.223-9.916-0.792-11.129c-0.617-1.314-3.822-7.962-4.146-8.13c-0.72-0.374-1.181,0.731-1.939,2.049
										c-0.758,1.317-3.744,5.575-6.781,8.909c-2.989,3.282-6.658,6.367-7.23,6.844c-0.572,0.478-0.758,1.317-0.578,2.78
										c0.18,1.463,0.376,7.608-1.806,10.741L317.845,123.225z"/>
									<g>
										<path style="fill:#455A64;" d="M327.185,86.534l1.968,4.192c0.06,0.125,0.036,0.289-0.085,0.463
											c-0.241,0.346-0.777,0.598-1.197,0.562c-0.213-0.018-0.355-0.107-0.412-0.235l-1.966-4.189L327.185,86.534z"/>
										<path style="fill:#37474F;" d="M325.904,87.559c-0.42-0.036-0.565-0.345-0.324-0.691c0.241-0.346,0.777-0.597,1.197-0.562
											c0.42,0.036,0.565,0.345,0.324,0.691C326.859,87.343,326.323,87.594,325.904,87.559z"/>
										<g>
											<path style="fill:#F0F0F0;" d="M328.045,85.865l0.38,0.807c0.127,0.267,0.077,0.617-0.181,0.988
												c-0.514,0.738-1.657,1.274-2.552,1.198c-0.455-0.039-0.757-0.229-0.878-0.502l-0.376-0.8L328.045,85.865z"/>
											<path style="fill:#E0E0E0;" d="M325.312,88.05c-0.896-0.076-1.206-0.736-0.692-1.473
												c0.514-0.738,1.656-1.274,2.552-1.198c0.896,0.076,1.205,0.736,0.692,1.473C327.35,87.59,326.208,88.126,325.312,88.05z"
												/>
											<path style="opacity:0.1;" d="M325.312,88.05c-0.896-0.076-1.206-0.736-0.692-1.473c0.514-0.738,1.656-1.274,2.552-1.198
												c0.896,0.076,1.205,0.736,0.692,1.473C327.35,87.59,326.208,88.126,325.312,88.05z"/>
										</g>
									</g>
									<g>
										<path style="fill:#455A64;" d="M322.795,92.535l1.968,4.192c0.06,0.125,0.036,0.289-0.085,0.463
											c-0.241,0.346-0.777,0.598-1.197,0.562c-0.213-0.018-0.355-0.107-0.412-0.235l-1.966-4.189L322.795,92.535z"/>
										<path style="fill:#37474F;" d="M321.514,93.56c-0.42-0.036-0.565-0.345-0.324-0.691c0.241-0.346,0.777-0.597,1.197-0.562
											c0.42,0.036,0.565,0.345,0.324,0.691C322.47,93.343,321.934,93.595,321.514,93.56z"/>
										<g>
											<path style="fill:#F0F0F0;" d="M323.656,91.866l0.38,0.808c0.127,0.267,0.077,0.617-0.181,0.987
												c-0.513,0.738-1.656,1.274-2.552,1.198c-0.455-0.039-0.756-0.229-0.878-0.502l-0.376-0.8L323.656,91.866z"/>
											<path style="fill:#E0E0E0;" d="M320.922,94.051c-0.896-0.076-1.205-0.736-0.692-1.473
												c0.514-0.738,1.657-1.274,2.552-1.198c0.896,0.076,1.206,0.736,0.692,1.473C322.961,93.59,321.818,94.127,320.922,94.051
												z"/>
											<path style="opacity:0.1;" d="M320.922,94.051c-0.896-0.076-1.205-0.736-0.692-1.473
												c0.514-0.738,1.657-1.274,2.552-1.198c0.896,0.076,1.206,0.736,0.692,1.473C322.961,93.59,321.818,94.127,320.922,94.051
												z"/>
										</g>
									</g>
									<g>
										<path style="fill:#455A64;" d="M317.944,96.873l1.967,4.192c0.06,0.125,0.036,0.289-0.085,0.463
											c-0.241,0.346-0.777,0.597-1.197,0.562c-0.213-0.018-0.355-0.107-0.412-0.235l-1.966-4.189L317.944,96.873z"/>
										<path style="fill:#37474F;" d="M316.662,97.897c-0.42-0.036-0.565-0.345-0.324-0.691c0.241-0.346,0.777-0.597,1.197-0.562
											c0.42,0.036,0.565,0.345,0.324,0.691C317.618,97.682,317.082,97.933,316.662,97.897z"/>
										<g>
											<path style="fill:#F0F0F0;" d="M318.804,96.204l0.38,0.807c0.127,0.267,0.077,0.617-0.181,0.988
												c-0.514,0.737-1.656,1.274-2.552,1.198c-0.455-0.039-0.756-0.229-0.878-0.502l-0.376-0.8L318.804,96.204z"/>
											<path style="fill:#E0E0E0;" d="M316.07,98.389c-0.896-0.076-1.205-0.736-0.691-1.473
												c0.514-0.738,1.656-1.274,2.552-1.198c0.896,0.076,1.205,0.736,0.691,1.473C318.109,97.928,316.966,98.465,316.07,98.389
												z"/>
											<path style="opacity:0.1;" d="M316.07,98.389c-0.896-0.076-1.205-0.736-0.691-1.473c0.514-0.738,1.656-1.274,2.552-1.198
												c0.896,0.076,1.205,0.736,0.691,1.473C318.109,97.928,316.966,98.465,316.07,98.389z"/>
										</g>
									</g>
								</g>
								<g>
									<polygon style="fill:#37474F;" points="315.615,118.475 320.074,127.975 265.602,211.349 261.905,211.035 256.055,195.429 
										311.918,118.161 									"/>
									<polygon id="XMLID_00000039852721125505352970000008924054031323262639_" style="fill:#455A64;" points="259.751,195.743 
										265.602,211.349 320.074,127.975 315.615,118.475 									"/>
								</g>
							</g>
							<g>
								<path style="fill:#BA68C8;" d="M261.198,199.147c-2.891-6.198-8.414-6.681-12.337-1.079
									c-3.923,5.603-4.759,15.169-1.868,21.368c2.891,6.199,8.414,6.681,12.337,1.079
									C263.253,214.912,264.089,205.346,261.198,199.147z"/>
								<path style="opacity:0.2;" d="M261.198,199.147c-2.891-6.198-8.414-6.681-12.337-1.079
									c-3.923,5.603-4.759,15.169-1.868,21.368c2.891,6.199,8.414,6.681,12.337,1.079
									C263.253,214.912,264.089,205.346,261.198,199.147z"/>
								<path style="fill:#263238;" d="M258.295,198.893c2.891,6.198,2.054,15.765-1.868,21.368
									c-1.534,2.192-3.313,3.439-5.084,3.79c-1.683-0.653-3.219-2.19-4.349-4.615c-2.891-6.199-2.054-15.765,1.868-21.368
									c1.534-2.192,3.273-3.442,5.044-3.794C255.589,194.928,257.165,196.469,258.295,198.893z"/>
							</g>
							<path d="M264.102,199.401c1.24,2.66,2.45,7.394,1.499,11.957l-2.902-0.254c0.67-4.295-0.256-9.298-1.5-11.959
								c-1.129-2.419-2.781-4.016-4.457-4.667l3.686,0.322C261.906,195.574,263.102,197.257,264.102,199.401z"/>
							<g>
								<g id="XMLID_00000163065961059918076560000014957738943160029585_">
									<polygon style="fill:#E0E0E0;" points="236.355,254.942 236.115,254.792 319.585,126.444 326.55,119.624 326.778,119.79 
										319.818,126.6 									"/>
								</g>
								<g id="XMLID_00000068665275041156108610000003738605967052497575_">
									<polygon style="fill:#E0E0E0;" points="234.932,252.189 234.693,252.039 318.896,125.111 330.959,112.692 331.185,112.86 
										319.128,125.27 									"/>
								</g>
								<g id="XMLID_00000004525431231743782920000012573448193934871741_">
									<polygon style="fill:#E0E0E0;" points="233.507,249.435 233.268,249.286 318.207,123.78 334.894,105.714 335.116,105.886 
										318.438,123.941 									"/>
								</g>
								<g id="XMLID_00000035515295756590828370000005641931166328180610_">
									<polygon style="fill:#E0E0E0;" points="229.197,241.107 228.963,240.951 316.088,119.536 321.691,106.556 321.936,106.696 
										316.328,119.685 									"/>
								</g>
								<g id="XMLID_00000008114109891937958950000008491232356110875570_">
									<polygon style="fill:#E0E0E0;" points="230.621,243.86 230.384,243.705 316.74,120.908 326.475,101.954 326.723,102.091 
										316.983,121.054 									"/>
								</g>
								<g id="XMLID_00000152255191635572864800000003441848518758829469_">
									<polygon style="fill:#E0E0E0;" points="232.046,246.613 231.809,246.458 318.612,120.639 331.591,96.398 331.841,96.53 
										318.855,120.781 									"/>
								</g>
							</g>
							<g>
								<g>
									<path style="fill:#E0E0E0;" d="M331.961,97.791l-0.889-0.078c-0.294-0.025-0.572-0.244-0.762-0.654
										c-0.378-0.815-0.266-2.073,0.251-2.808c0.262-0.373,0.578-0.538,0.876-0.506l0.88,0.078L331.961,97.791z"/>
									<path style="opacity:0.1;" d="M331.961,97.791l-0.889-0.078c-0.294-0.025-0.572-0.244-0.762-0.654
										c-0.378-0.815-0.266-2.073,0.251-2.808c0.262-0.373,0.578-0.538,0.876-0.506l0.88,0.078L331.961,97.791z"/>
									<path style="fill:#F0F0F0;" d="M331.451,94.33c0.517-0.736,1.243-0.671,1.621,0.144c0.379,0.815,0.266,2.073-0.251,2.808
										c-0.517,0.736-1.243,0.671-1.621-0.145C330.822,96.322,330.934,95.065,331.451,94.33z"/>
								</g>
								<g>
									<path style="fill:#E0E0E0;" d="M327.515,103.225l-0.889-0.078c-0.294-0.025-0.572-0.245-0.762-0.654
										c-0.378-0.815-0.266-2.072,0.25-2.808c0.262-0.373,0.578-0.539,0.876-0.506l0.88,0.078L327.515,103.225z"/>
									<path style="opacity:0.1;" d="M327.515,103.225l-0.889-0.078c-0.294-0.025-0.572-0.245-0.762-0.654
										c-0.378-0.815-0.266-2.072,0.25-2.808c0.262-0.373,0.578-0.539,0.876-0.506l0.88,0.078L327.515,103.225z"/>
									<path style="fill:#F0F0F0;" d="M327.004,99.763c0.517-0.736,1.243-0.671,1.621,0.145c0.379,0.815,0.266,2.073-0.251,2.808
										c-0.517,0.736-1.243,0.671-1.621-0.145C326.375,101.756,326.487,100.498,327.004,99.763z"/>
								</g>
								<g>
									<path style="fill:#E0E0E0;" d="M322.27,107.983l-0.889-0.078c-0.295-0.025-0.572-0.244-0.762-0.654
										c-0.378-0.815-0.266-2.073,0.251-2.808c0.262-0.373,0.578-0.538,0.875-0.506l0.881,0.078L322.27,107.983z"/>
									<path style="opacity:0.1;" d="M322.27,107.983l-0.889-0.078c-0.295-0.025-0.572-0.244-0.762-0.654
										c-0.378-0.815-0.266-2.073,0.251-2.808c0.262-0.373,0.578-0.538,0.875-0.506l0.881,0.078L322.27,107.983z"/>
									<path style="fill:#F0F0F0;" d="M321.759,104.521c0.517-0.735,1.243-0.671,1.621,0.145c0.378,0.815,0.266,2.073-0.251,2.808
										c-0.517,0.736-1.243,0.671-1.621-0.145C321.13,106.514,321.242,105.257,321.759,104.521z"/>
								</g>
								<g>
									<path style="fill:#E0E0E0;" d="M336.35,108.224l-0.889-0.079c-0.295-0.025-0.572-0.244-0.762-0.654
										c-0.378-0.815-0.266-2.073,0.251-2.808c0.262-0.373,0.578-0.538,0.876-0.506l0.88,0.078L336.35,108.224z"/>
									<path style="opacity:0.1;" d="M336.35,108.224l-0.889-0.079c-0.295-0.025-0.572-0.244-0.762-0.654
										c-0.378-0.815-0.266-2.073,0.251-2.808c0.262-0.373,0.578-0.538,0.876-0.506l0.88,0.078L336.35,108.224z"/>
									<path style="fill:#F0F0F0;" d="M335.84,104.763c0.517-0.735,1.243-0.671,1.621,0.145c0.379,0.815,0.266,2.073-0.251,2.808
										c-0.517,0.735-1.243,0.671-1.621-0.145C335.211,106.755,335.323,105.498,335.84,104.763z"/>
								</g>
								<g>
									<path style="fill:#E0E0E0;" d="M332.186,114.613l-0.889-0.078c-0.294-0.025-0.572-0.244-0.762-0.653
										c-0.378-0.815-0.266-2.073,0.251-2.808c0.262-0.373,0.578-0.538,0.876-0.506l0.88,0.078L332.186,114.613z"/>
									<path style="opacity:0.1;" d="M332.186,114.613l-0.889-0.078c-0.294-0.025-0.572-0.244-0.762-0.653
										c-0.378-0.815-0.266-2.073,0.251-2.808c0.262-0.373,0.578-0.538,0.876-0.506l0.88,0.078L332.186,114.613z"/>
									<path style="fill:#F0F0F0;" d="M331.675,111.152c0.517-0.736,1.243-0.671,1.621,0.145c0.379,0.815,0.266,2.072-0.251,2.808
										c-0.517,0.736-1.243,0.671-1.621-0.145C331.046,113.144,331.158,111.887,331.675,111.152z"/>
								</g>
								<g>
									<path style="fill:#E0E0E0;" d="M328.091,121.425l-0.889-0.078c-0.294-0.025-0.572-0.244-0.762-0.653
										c-0.379-0.815-0.266-2.073,0.25-2.808c0.262-0.373,0.579-0.538,0.876-0.506l0.88,0.078L328.091,121.425z"/>
									<path style="opacity:0.1;" d="M328.091,121.425l-0.889-0.078c-0.294-0.025-0.572-0.244-0.762-0.653
										c-0.379-0.815-0.266-2.073,0.25-2.808c0.262-0.373,0.579-0.538,0.876-0.506l0.88,0.078L328.091,121.425z"/>
									<path style="fill:#F0F0F0;" d="M327.58,117.963c0.517-0.735,1.243-0.671,1.621,0.145c0.379,0.815,0.266,2.073-0.251,2.808
										c-0.517,0.736-1.243,0.671-1.621-0.145C326.951,119.956,327.063,118.699,327.58,117.963z"/>
								</g>
							</g>
							<g>
								<g>
									<path style="fill:#E0E0E0;" d="M236.283,256.134l-0.493-0.044c-0.163-0.014-0.317-0.136-0.422-0.363
										c-0.209-0.452-0.146-1.149,0.141-1.557c0.146-0.207,0.321-0.298,0.486-0.28l0.488,0.044L236.283,256.134z"/>
									<path style="fill:#F0F0F0;" d="M236.002,254.215c0.287-0.407,0.689-0.371,0.899,0.081c0.209,0.452,0.146,1.149-0.141,1.557
										c-0.287,0.408-0.689,0.371-0.899-0.081C235.652,255.32,235.715,254.623,236.002,254.215z"/>
									<path style="fill:#455A64;" d="M236.183,254.606c0.15-0.213,0.36-0.194,0.47,0.042c0.109,0.237,0.077,0.601-0.074,0.814
										c-0.15,0.213-0.36,0.194-0.47-0.042S236.033,254.819,236.183,254.606z"/>
								</g>
								<g>
									<path style="fill:#E0E0E0;" d="M234.946,253.261l-0.493-0.044c-0.163-0.014-0.317-0.136-0.422-0.363
										c-0.209-0.452-0.146-1.149,0.141-1.557c0.146-0.207,0.321-0.298,0.486-0.28l0.488,0.044L234.946,253.261z"/>
									<path style="fill:#F0F0F0;" d="M234.664,251.342c0.287-0.407,0.689-0.371,0.899,0.081c0.209,0.452,0.146,1.149-0.141,1.557
										c-0.287,0.408-0.689,0.371-0.899-0.081C234.315,252.446,234.378,251.749,234.664,251.342z"/>
									<path style="fill:#455A64;" d="M234.845,251.732c0.15-0.213,0.36-0.194,0.47,0.042c0.109,0.236,0.077,0.601-0.074,0.814
										c-0.15,0.213-0.36,0.194-0.47-0.042C234.662,252.31,234.695,251.945,234.845,251.732z"/>
								</g>
								<g>
									<path style="fill:#E0E0E0;" d="M233.608,250.387l-0.493-0.044c-0.163-0.014-0.317-0.136-0.422-0.363
										c-0.209-0.452-0.146-1.149,0.141-1.557c0.146-0.207,0.321-0.298,0.486-0.28l0.488,0.044L233.608,250.387z"/>
									<path style="fill:#F0F0F0;" d="M233.327,248.468c0.287-0.407,0.689-0.371,0.899,0.081c0.209,0.452,0.146,1.149-0.141,1.557
										c-0.287,0.407-0.689,0.371-0.899-0.081C232.977,249.572,233.04,248.875,233.327,248.468z"/>
									<path style="fill:#455A64;" d="M233.508,248.859c0.15-0.213,0.36-0.194,0.47,0.042c0.109,0.236,0.077,0.601-0.074,0.814
										c-0.15,0.213-0.36,0.194-0.47-0.042C233.324,249.436,233.357,249.072,233.508,248.859z"/>
								</g>
								<g>
									<path style="fill:#E0E0E0;" d="M232.27,247.514l-0.493-0.044c-0.163-0.014-0.317-0.136-0.422-0.363
										c-0.209-0.452-0.146-1.149,0.141-1.557c0.146-0.207,0.321-0.298,0.486-0.28l0.488,0.044L232.27,247.514z"/>
									<path style="fill:#F0F0F0;" d="M231.989,245.594c0.287-0.407,0.689-0.371,0.899,0.081c0.209,0.452,0.146,1.149-0.141,1.557
										c-0.287,0.407-0.689,0.371-0.899-0.081C231.639,246.699,231.702,246.002,231.989,245.594z"/>
									<path style="fill:#455A64;" d="M232.17,245.985c0.15-0.213,0.361-0.194,0.47,0.042c0.11,0.236,0.077,0.601-0.074,0.814
										c-0.15,0.213-0.36,0.194-0.47-0.042C231.987,246.563,232.02,246.198,232.17,245.985z"/>
								</g>
								<g>
									<path style="fill:#E0E0E0;" d="M230.932,244.64l-0.493-0.044c-0.163-0.014-0.317-0.136-0.422-0.363
										c-0.209-0.452-0.146-1.149,0.141-1.557c0.146-0.207,0.321-0.298,0.486-0.28l0.488,0.044L230.932,244.64z"/>
									<path style="fill:#F0F0F0;" d="M230.651,242.721c0.287-0.407,0.689-0.371,0.899,0.081c0.209,0.452,0.146,1.149-0.141,1.557
										c-0.287,0.407-0.689,0.371-0.899-0.081C230.301,243.825,230.364,243.128,230.651,242.721z"/>
									<path style="fill:#455A64;" d="M230.832,243.111c0.15-0.213,0.361-0.194,0.47,0.042c0.11,0.236,0.077,0.601-0.074,0.814
										c-0.15,0.213-0.36,0.194-0.47-0.042C230.649,243.689,230.682,243.324,230.832,243.111z"/>
								</g>
								<g>
									<path style="fill:#E0E0E0;" d="M229.594,241.767l-0.493-0.044c-0.163-0.014-0.317-0.136-0.422-0.363
										c-0.209-0.452-0.146-1.149,0.141-1.557c0.146-0.207,0.321-0.298,0.486-0.28l0.488,0.044L229.594,241.767z"/>
									<path style="fill:#F0F0F0;" d="M229.313,239.847c0.287-0.407,0.689-0.371,0.899,0.081c0.209,0.452,0.146,1.149-0.141,1.557
										c-0.287,0.407-0.689,0.371-0.899-0.081C228.963,240.952,229.026,240.255,229.313,239.847z"/>
									<path style="fill:#455A64;" d="M229.494,240.238c0.15-0.213,0.361-0.194,0.47,0.043c0.109,0.236,0.077,0.601-0.074,0.814
										c-0.15,0.213-0.36,0.194-0.47-0.042C229.311,240.815,229.344,240.451,229.494,240.238z"/>
								</g>
							</g>
						</g>
					</g>
				</g>
				<g>
					<path style="fill:#FFA8A7;" d="M201.635,231.056c7.203-1.355,13.075-1.465,16.131-1.268c4.848,0.312,9.707,1.053,14.546,0.906
						c1.453-0.044,2.871-0.434,4.263-0.854c2.643-0.797,5.251-1.712,7.812-2.742c2.16-0.868,4.965-1.641,6.435-3.571
						c0.52-0.677,0.819-1.519,1.425-2.12c0.372-0.369,0.842-0.628,1.206-1.005c0.945-0.976,0.986-2.491,0.923-3.848
						c-0.018-0.381-0.027-0.803,0.217-1.096c0.148-0.178,0.366-0.278,0.569-0.388c1.521-0.827,2.488-2.577,2.38-4.304
						c-0.022-0.347-0.081-0.708,0.042-1.033c0.117-0.31,0.381-0.537,0.643-0.739c1.389-1.071,3.047-1.881,4.039-3.328
						c0.229-0.334,0.422-0.712,0.434-1.116c0.021-0.682-0.486-1.291-1.094-1.598c-0.9-0.455-1.918-0.46-2.888-0.315
						c-2.595,0.388-4.825,1.373-7.296,2.206c-2.315,0.782-4.636,1.552-6.993,2.202c-2.354,0.649-4.746,1.179-7.174,1.46
						c-1.13,0.131-2.587,0.61-3.695,0.172c-2.035-0.805,0.525-2.253,1.499-2.593c1.55-0.542,3.042-1.248,4.443-2.104
						c0.914-0.558,1.803-1.194,2.451-2.048c0.647-0.853,1.029-1.957,0.821-3.007c-0.044-0.222-0.129-0.46-0.325-0.572
						c-0.172-0.099-0.385-0.076-0.581-0.051c-3.127,0.406-6.243,0.901-9.342,1.485c-2.925,0.552-5.621,1.523-8.363,2.692
						c-1.683,0.717-3.353,1.472-4.952,2.364c-2.336,1.304-4.606,2.819-7.263,3.375c-0.88,0.184-5.24,1.079-11.008,1.418
						c-5.768,0.339-30.838,0.067-30.838,0.067l-7.212-35.386c0,0-5.8-23.025-17.272-31.775
						c-10.295,6.312-14.536,17.283-13.003,28.174c1.582,11.243,7.024,39.897,9.995,50.573c2.934,10.545,6.787,16.752,17.691,16.122
						C176.108,236.497,194.432,232.411,201.635,231.056z"/>
					<path style="fill:#F28F8F;" d="M257.314,209.638c-3.117,1.129-6.245,2.294-9.417,3.271c-3.152,0.971-6.369,1.62-9.566,2.409
						c-0.184,0.045-0.054,0.374,0.107,0.357c3.308-0.346,6.577-1.209,9.751-2.187c1.549-0.477,3.078-1.017,4.587-1.606
						c1.595-0.622,3.059-1.367,4.55-2.195C257.342,209.678,257.336,209.63,257.314,209.638z"/>
					<path style="fill:#F28F8F;" d="M254.429,215.493c-3.117,1.129-4.267,1.751-7.44,2.729c-3.152,0.971-4.491,1.208-7.689,1.997
						c-0.184,0.045-0.054,0.374,0.107,0.357c3.309-0.346,4.7-0.797,7.873-1.775c1.549-0.477,2.047-0.688,3.545-1.307
						c1.834-0.759,2.124-1.123,3.615-1.951C254.458,215.533,254.452,215.485,254.429,215.493z"/>
					<path style="fill:#F28F8F;" d="M248.621,222.47c-3.152,0.971-4.492,1.208-7.689,1.997c-0.184,0.045-0.054,0.38,0.107,0.357
						c2.926-0.408,3.886-0.599,7.059-1.577c1.549-0.477,1.914-0.672,3.424-1.261c0.134-0.052,0.257-0.118,0.389-0.172
						c0.104-0.142,0.211-0.282,0.337-0.407c0.142-0.141,0.305-0.261,0.465-0.383C251.518,221.495,250.378,221.929,248.621,222.47z"
						/>
				</g>
				<g>
					<path style="fill:#F28F8F;" d="M315.615,148.51l-6.037-4.461l-12.057,18.444c0.901,2.654,3.177,4.031,3.177,4.031
						s1.986-1.393,3.876-2.484C304.575,164.041,314.712,156.37,315.615,148.51z"/>
					<path style="fill:#FFA8A7;" d="M321.534,152.335c0.879-0.775,1.662-1.641,2.074-2.723c0.191-0.503,0.297-1.04,0.544-1.517
						c0.327-0.631,0.824-0.856,1.337-1.284c0.393-0.328,0.706-0.868,0.837-1.358c0.306-1.14-0.116-2.333-0.297-3.458
						c-0.047-0.294-0.093-0.605,0.013-0.884c0.075-0.199,0.221-0.362,0.357-0.526c0.559-0.67,1.026-1.486,0.987-2.358
						c-0.041-0.922-0.656-1.519-1.04-2.297c-0.407-0.824-0.475-1.768-0.727-2.642c-0.376-1.304-1.141-2.456-1.895-3.584
						c-0.621-0.929-1.242-1.858-1.863-2.787c-0.537-0.803-1.083-1.618-1.816-2.248c-0.582-0.501-1.265-0.869-1.948-1.22
						c-1.996-1.025-4.051-1.934-6.152-2.722c-0.375-0.14-0.81-0.273-1.157-0.073c-0.202,0.117-0.331,0.328-0.414,0.546
						c-0.45,1.185,0.305,2.493,1.222,3.368c0.567,0.541,1.205,1.003,1.768,1.549c0.566,0.549,1.019,1.225,1.387,1.92
						c-1.067-0.329-2.131-0.668-3.191-1.019c-1.028-0.34-2.044-0.748-3.119-0.912c-0.895-0.137-1.806-0.089-2.709-0.022
						c-0.711,0.053-1.42,0.116-2.128,0.192c-0.432,0.046-0.99-0.109-1.308,0.257c-0.179,0.206-0.255,0.481-0.298,0.75
						c-0.355,2.21,2.708,3.119,4.375,3.501c1.365,0.313,2.642,0.917,3.908,1.517c1.432,0.679-1.237,1.528-1.591,1.911
						c-0.331,0.358-0.413,0.874-0.458,1.359c-0.083,0.903-0.087,1.813-0.011,2.716c-0.751,0.433-1.522,0.895-2.014,1.608
						c-0.617,0.895-0.699,2.043-0.716,3.13c-0.02,1.301,0.024,2.604,0.133,3.901c0.056,0.663,0.128,1.324,0.216,1.984
						c0.038,0.283,0.029,0.567,0.224,0.79c0.17,0.194,0.407,0.325,0.652,0.397c0.283,0.083,0.585,0.099,0.878,0.085
						c0.268-0.013,0.485-0.167,0.703-0.318c0.421-0.293,0.816-0.68,1.015-1.162c-0.139,0.338-0.03,0.693-0.244,0.998
						c-0.232,0.332-0.616,0.536-0.928,0.782c-1.201,0.947-1.625,2.595-1.614,4.124c0.011,1.529,0.377,3.037,0.424,4.566
						c0.061,2.013-1.332,3.24-2.372,4.867c4.197-2.808,5.301-3.535,8.048-5.48c1.397-0.989,2.816-1.946,4.272-2.845
						c1.211-0.748,2.306-1.503,3.423-2.384C320.726,153.011,321.14,152.682,321.534,152.335z"/>
					<path style="fill:#F28F8F;" d="M322.583,133.642c-0.473-0.749-1.091-1.416-1.671-2.083c-0.394-0.453-0.779-0.915-1.193-1.35
						c-0.353-0.37-0.845-0.628-1.289-0.884c-0.964-0.555-1.999-0.986-3.072-1.279c-0.133-0.036-0.329-0.031-0.346,0.105
						c-0.012,0.096,0.086,0.165,0.171,0.21c0.983,0.521,2.037,0.9,2.995,1.469c0.946,0.563,1.743,1.346,2.493,2.139
						c0.582,0.616,1.166,1.305,1.858,1.799C322.587,133.811,322.602,133.672,322.583,133.642z"/>
					<path style="fill:#F28F8F;" d="M318.594,134.433c-0.684-0.566-1.379-1.207-2.285-1.361c-0.876-0.149-1.82,0.019-2.694,0.116
						c-1.084,0.12-2.165,0.289-3.24,0.474c-0.112,0.019-0.067,0.259,0.045,0.253c1.026-0.055,2.052-0.11,3.077-0.15
						c0.935-0.036,1.967-0.23,2.892-0.061c0.91,0.166,1.651,0.991,2.352,1.547c0.76,0.603,1.551,1.249,2.412,1.699
						c0.054,0.029,0.062-0.094,0.039-0.12C320.424,135.941,319.495,135.18,318.594,134.433z"/>
					<path style="fill:#F28F8F;" d="M316.956,138.943c-0.684-0.566-1.379-1.207-2.285-1.361c-0.876-0.149-1.82,0.019-2.694,0.116
						c-1.084,0.12-2.165,0.289-3.24,0.474c-0.112,0.019-0.066,0.259,0.045,0.253c1.026-0.055,2.052-0.11,3.077-0.15
						c0.935-0.036,1.967-0.23,2.892-0.061c0.909,0.166,1.651,0.991,2.352,1.547c0.76,0.603,1.551,1.25,2.412,1.699
						c0.055,0.029,0.062-0.094,0.039-0.12C318.786,140.452,317.857,139.69,316.956,138.943z"/>
					<path style="fill:#F28F8F;" d="M312.583,145.943c-0.236-0.184-0.821-0.424-0.814-0.768c0.005-0.236,0.153-0.342,0.288-0.507
						c0.134-0.163,0.253-0.337,0.364-0.516c0.058-0.094,0.112-0.19,0.164-0.287c0.028-0.053,0.059-0.107,0.081-0.163
						c0.027-0.07,0.028-0.148,0.037-0.223c0.034-0.27-0.36-0.64-0.571-0.352c-0.041,0.056-0.091,0.097-0.125,0.16
						c-0.026,0.048-0.046,0.099-0.071,0.148c-0.049,0.098-0.102,0.194-0.158,0.288c-0.03,0.051-0.043,0.071-0.062,0.101
						c-0.03,0.046-0.061,0.091-0.093,0.136c-0.065,0.093-0.132,0.185-0.202,0.274c-0.145,0.184-0.757,0.97-0.951,0.415
						c-0.026-0.075-0.137-0.404-0.263-0.282c-0.211,0.204-0.159,0.595-0.168,0.865c-0.013,0.37-0.029,0.739-0.065,1.107
						c-0.067,0.681-0.197,1.389-0.485,2.015c-0.241,0.524-0.592,1.023-1.063,1.363c-0.276,0.199-0.588,0.341-0.921,0.412
						c-0.309,0.066-0.626,0.068-0.936,0.124c-0.09,0.016-0.071,0.193-0.004,0.226c1.267,0.631,2.72-0.43,3.3-1.525
						c0.353-0.668,0.516-1.389,0.581-2.137c0.027-0.313-0.013-0.572,0.072-0.877c0.035-0.126,0.076-0.26,0.181-0.337
						c0.457-0.333,0.934,0.23,1.263,0.48c0.276,0.211,0.577,0.436,0.918,0.528c0.186,0.05,0.16-0.223,0.08-0.311
						C312.844,146.172,312.719,146.049,312.583,145.943z"/>
				</g>
				<path style="fill:#E0E0E0;" d="M145.434,138.971c-9.169,5.839-17.44,13.642-11.978,41.263
					c5.462,27.621,8.311,41.488,11.239,48.982c2.927,7.495,8.735,10.16,19.347,9.38c10.611-0.78,29.225-2.515,34.374-3.607
					c5.15-1.092,5.336-3.945,5.336-3.945l-4.491,0.829c0,0-2.449-3.264-2.605-10.13c-0.156-6.866,3.948-12.566,3.948-12.566
					l2.177-0.083c0,0,0.145-1.864-4.316-1.708c-4.461,0.156-25.809-0.156-25.809-0.156s-5.18-25.288-7.053-33.399
					S157.412,144.835,145.434,138.971z"/>
				<path style="fill:#F0F0F0;" d="M199.261,231.873c0,0-2.449-3.264-2.605-10.13c-0.156-6.866,3.948-12.566,3.948-12.566
					l6.458-0.537c0,0-4.048,5.011-3.952,12.495c0.076,5.918,2.98,9.717,2.98,9.717L199.261,231.873z"/>
			</g>
		</g>
	</g>
</g>
<g id="Microphone">
	<g id="Microphone_1_">
		<g id="Cable">
			<path style="fill:#263238;" d="M362.814,271.384c6.218,10.473,12.092,20.365,12.092,30.246c0,8.92-4.806,17.022-9.894,25.6
				c-5.483,9.242-11.153,18.8-11.153,30.182c0,10.104,4.438,18.749,9.297,27.001h2.883c-4.991-8.371-9.78-17.074-9.78-27.001
				c0-10.569,5.466-19.781,10.751-28.69c5.295-8.926,10.296-17.357,10.296-27.092c0-10.697-6.069-20.918-12.494-31.739
				c-5.293-8.915-10.768-18.134-12.565-27.62c-3.886-20.487-0.036-42.717,0.002-42.939c0.13-0.729-0.293-1.438-0.942-1.582
				c-0.658-0.149-1.282,0.329-1.411,1.057c-0.041,0.227-3.988,22.984,0.002,44.025C351.793,252.822,357.396,262.258,362.814,271.384
				z"/>
		</g>
		<g>
			<path style="fill:#455A64;" d="M364.105,183.544v0.125l-1.752,0.867c-0.125-0.492-0.349-0.975-0.673-1.441
				c-0.557-0.828-1.415-1.601-2.571-2.27c-4.5-2.597-11.792-2.597-16.292,0c-1.152,0.669-2.011,1.441-2.572,2.265
				c-0.324,0.466-0.548,0.954-0.673,1.445l-1.756-0.992c0-1.942,1.286-3.879,3.853-5.363c5.13-2.964,13.453-2.964,18.587,0
				C362.819,179.665,364.105,181.602,364.105,183.544z"/>
			<path style="fill:#263238;" d="M359.109,178.841c-4.5-2.597-11.792-2.597-16.292,0c-2.248,1.299-3.374,2.999-3.374,4.703
				c0,0.332,0.043,0.664,0.129,0.992c0.125-0.492,0.349-0.979,0.673-1.445c0.561-0.824,1.419-1.596,2.572-2.265
				c4.5-2.597,11.792-2.597,16.292,0c1.156,0.669,2.015,1.441,2.571,2.27c0.324,0.466,0.548,0.949,0.673,1.441
				c0.086-0.328,0.129-0.66,0.129-0.992C362.483,181.84,361.357,180.14,359.109,178.841z"/>
		</g>
		<g id="Microphone_00000017474706824200346370000017727596590130579367_">
			<g>
				<g>
					<path style="fill:#BA68C8;" d="M360.356,193.982h-2.411c-0.331-0.313-0.723-0.611-1.193-0.882
						c-3.198-1.846-8.383-1.846-11.581,0c-0.469,0.271-0.861,0.569-1.193,0.882h-2.41l1.379,3.431h0.003
						c0.314,0.87,1.051,1.698,2.221,2.374c3.198,1.846,8.383,1.846,11.581,0c1.169-0.675,1.906-1.504,2.22-2.374h0.003
						L360.356,193.982z"/>
					<path style="opacity:0.3;" d="M360.356,193.982h-2.411c-0.331-0.313-0.723-0.611-1.193-0.882
						c-3.198-1.846-8.383-1.846-11.581,0c-0.469,0.271-0.861,0.569-1.193,0.882h-2.41l1.379,3.431h0.003
						c0.314,0.87,1.051,1.698,2.221,2.374c3.198,1.846,8.383,1.846,11.581,0c1.169-0.675,1.906-1.504,2.22-2.374h0.003
						L360.356,193.982z"/>
				</g>
				<g>
					<path style="fill:#BA68C8;" d="M360.599,192.727v-24.762h-19.276v24.773h0.002c0,1.424,0.941,2.848,2.823,3.934
						c3.764,2.173,9.866,2.173,13.629,0C359.664,195.584,360.604,194.155,360.599,192.727z"/>
					<path style="opacity:0.15;" d="M360.599,192.727v-24.762h-19.276v24.773h0.002c0,1.424,0.941,2.848,2.823,3.934
						c3.764,2.173,9.866,2.173,13.629,0C359.664,195.584,360.604,194.155,360.599,192.727z"/>
				</g>
				<g>
					<path style="fill:#BA68C8;" d="M360.279,168.038c-0.444-0.421-0.978-0.818-1.608-1.182c-4.258-2.458-11.161-2.458-15.419,0
						c-0.63,0.364-1.164,0.762-1.608,1.182h-1.585v3.269l0,0c0,1.611,1.064,3.222,3.193,4.451c4.258,2.458,11.161,2.458,15.419,0
						c2.129-1.229,3.193-2.84,3.193-4.451l0,0v-3.269H360.279z"/>
					<path style="fill:#BA68C8;" d="M343.253,172.489c4.258,2.458,11.161,2.458,15.418,0c4.258-2.458,4.258-6.444,0-8.902
						c-4.258-2.458-11.161-2.458-15.418,0C338.995,166.045,338.995,170.031,343.253,172.489z"/>
					<path style="opacity:0.3;fill:#FFFFFF;" d="M343.253,172.489c4.258,2.458,11.161,2.458,15.418,0
						c4.258-2.458,4.258-6.444,0-8.902c-4.258-2.458-11.161-2.458-15.418,0C338.995,166.045,338.995,170.031,343.253,172.489z"/>
				</g>
				<g>
					<g>
						<path style="fill:#BA68C8;" d="M343.076,180.466l-0.84,0.485v15.463c0.317,0.261,0.668,0.512,1.072,0.745
							c0.733,0.423,1.557,0.762,2.434,1.02l0.841-0.485v-15.204L343.076,180.466z"/>
						<path style="opacity:0.25;" d="M342.235,196.413c0.317,0.261,0.668,0.512,1.072,0.745c0.733,0.423,1.557,0.762,2.434,1.02
							v-15.204l-3.505-2.024V196.413z"/>
						<polygon style="opacity:0.3;fill:#FFFFFF;" points="342.235,180.951 343.076,180.466 346.581,182.489 345.741,182.975 						
							"/>
					</g>
					<g>
						<path style="fill:#BA68C8;" d="M344.042,183.394c-0.245-0.141-0.466-0.155-0.627-0.064c-0.163,0.092-0.252,0.146-0.413,0.239
							c-0.161,0.093-0.261,0.292-0.261,0.576c0,0.567,0.398,1.257,0.89,1.541c0.246,0.142,0.468,0.155,0.629,0.062
							c0.161-0.093,0.246-0.144,0.406-0.235c0.164-0.092,0.265-0.292,0.265-0.578C344.932,184.368,344.534,183.678,344.042,183.394z
							"/>
						<path style="fill:#BA68C8;" d="M344.042,183.394c-0.245-0.141-0.466-0.155-0.627-0.064c-0.163,0.092-0.252,0.146-0.413,0.239
							c-0.161,0.093-0.261,0.292-0.261,0.576c0,0.567,0.398,1.257,0.89,1.541c0.246,0.142,0.468,0.155,0.629,0.062
							c0.161-0.093,0.246-0.144,0.406-0.235c0.164-0.092,0.265-0.292,0.265-0.578C344.932,184.368,344.534,183.678,344.042,183.394z
							"/>
						<path style="opacity:0.15;" d="M343.632,183.631c0.491,0.284,0.89,0.974,0.89,1.541c0,0.567-0.398,0.797-0.89,0.514
							c-0.491-0.284-0.89-0.974-0.89-1.541S343.14,183.348,343.632,183.631z"/>
					</g>
					<g>
						<path style="fill:#BA68C8;" d="M344.042,187.855c-0.245-0.141-0.466-0.155-0.627-0.064c-0.163,0.092-0.252,0.146-0.413,0.239
							c-0.161,0.093-0.261,0.292-0.261,0.576c0,0.567,0.398,1.257,0.89,1.541c0.246,0.142,0.468,0.155,0.629,0.062
							c0.161-0.093,0.246-0.144,0.406-0.235c0.164-0.092,0.265-0.292,0.265-0.578C344.932,188.829,344.534,188.139,344.042,187.855z
							"/>
						<path style="fill:#BA68C8;" d="M344.042,187.855c-0.245-0.141-0.466-0.155-0.627-0.064c-0.163,0.092-0.252,0.146-0.413,0.239
							c-0.161,0.093-0.261,0.292-0.261,0.576c0,0.567,0.398,1.257,0.89,1.541c0.246,0.142,0.468,0.155,0.629,0.062
							c0.161-0.093,0.246-0.144,0.406-0.235c0.164-0.092,0.265-0.292,0.265-0.578C344.932,188.829,344.534,188.139,344.042,187.855z
							"/>
						<path style="opacity:0.15;" d="M343.632,188.092c0.491,0.284,0.89,0.974,0.89,1.541c0,0.567-0.398,0.798-0.89,0.514
							c-0.491-0.284-0.89-0.974-0.89-1.541C342.742,188.038,343.14,187.808,343.632,188.092z"/>
					</g>
					<g>
						<path style="fill:#BA68C8;" d="M344.042,192.316c-0.245-0.141-0.466-0.155-0.627-0.064c-0.163,0.092-0.252,0.146-0.413,0.239
							c-0.161,0.093-0.261,0.292-0.261,0.576c0,0.567,0.398,1.257,0.89,1.541c0.246,0.142,0.468,0.155,0.629,0.062
							c0.161-0.093,0.246-0.144,0.406-0.235c0.164-0.092,0.265-0.292,0.265-0.578C344.932,193.289,344.534,192.599,344.042,192.316z
							"/>
						<path style="fill:#BA68C8;" d="M344.042,192.316c-0.245-0.141-0.466-0.155-0.627-0.064c-0.163,0.092-0.252,0.146-0.413,0.239
							c-0.161,0.093-0.261,0.292-0.261,0.576c0,0.567,0.398,1.257,0.89,1.541c0.246,0.142,0.468,0.155,0.629,0.062
							c0.161-0.093,0.246-0.144,0.406-0.235c0.164-0.092,0.265-0.292,0.265-0.578C344.932,193.289,344.534,192.599,344.042,192.316z
							"/>
						<path style="opacity:0.15;" d="M343.632,192.553c0.491,0.284,0.89,0.974,0.89,1.541s-0.398,0.797-0.89,0.514
							s-0.89-0.974-0.89-1.541C342.742,192.499,343.14,192.269,343.632,192.553z"/>
					</g>
				</g>
			</g>
			<g>
				<path style="fill:#263238;" d="M360.602,159.217L360,148.24l-0.464-7.806c-0.071-1.189-0.965-2.636-1.996-3.232l-0.871-0.503
					c-1.032-0.596-2.705-0.596-3.736,0l-8.549,4.936c-1.032,0.596-1.938,2.042-2.024,3.23l-1.037,14.351l0,8.727h0.002
					c-0.009,1.431,0.93,2.864,2.822,3.956c3.764,2.173,9.867,2.173,13.632,0c1.891-1.092,2.831-2.525,2.822-3.956h0.002V159.217z"/>
				<path style="fill:#455A64;" d="M344.384,143.793l0.87,0.503c1.032,0.596,2.705,0.596,3.737,0l8.549-4.936
					c1.032-0.596,1.032-1.561,0-2.157l-0.87-0.503c-1.032-0.596-2.705-0.596-3.736,0l-8.549,4.936
					C343.353,142.231,343.353,143.197,344.384,143.793z"/>
				<path style="fill:#37474F;" d="M354.463,161.744c3.385-1.957,5.865-8.003,5.537-13.504l-0.464-7.806
					c-0.071-1.189-0.965-1.671-1.996-1.075l-8.549,4.936c-1.032,0.596-1.81,2.043-1.737,3.232c0.111,1.824,0.282,4.642,0.474,7.804
					C348.063,160.83,351.078,163.701,354.463,161.744z"/>
				<path style="fill:#BA68C8;" d="M357.54,137.202l-0.871-0.503c-0.056,0-0.121,0-0.177,0l-11.043,6.376
					c-0.697,0.403-1.137,1.136-1.163,1.941l-0.868,26.409c0.234,0.17,0.483,0.335,0.757,0.491c0.072,0.041,0.179,0.1,0.293,0.161
					l0.869-26.455c0.026-0.805,0.466-1.538,1.163-1.941l11.039-6.373C357.54,137.25,357.54,137.261,357.54,137.202z"/>
				<path style="opacity:0.3;fill:#FFFFFF;" d="M356.492,136.7l-11.043,6.376c-0.357,0.206-0.645,0.499-0.846,0.844l0.651,0.376
					c0.13,0.075,0.271,0.141,0.42,0.197c0.2-0.33,0.481-0.611,0.826-0.81l11.039-6.373c0-0.059,0-0.048,0-0.107l-0.871-0.503
					C356.613,136.7,356.549,136.7,356.492,136.7z"/>
			</g>
		</g>
		<g>
			<path style="fill:#37474F;" d="M364.105,183.669v1.86c0,1.941-1.281,3.883-3.849,5.363c-5.134,2.964-13.457,2.964-18.587,0
				c-1.281-0.742-2.248-1.596-2.891-2.507c-0.643-0.915-0.962-1.885-0.962-2.856v-1.985l1.756,0.992
				c0.349,1.359,1.432,2.666,3.245,3.715c4.5,2.597,11.792,2.597,16.292,0c1.812-1.048,2.895-2.356,3.245-3.715L364.105,183.669z"/>
			<path style="fill:#455A64;" d="M362.353,184.536c-0.349,1.359-1.432,2.666-3.245,3.715c-4.5,2.597-11.792,2.597-16.292,0
				c-1.812-1.048-2.895-2.356-3.245-3.715l-1.756-0.992v0.004c0,1.527,0.794,3.055,2.386,4.353c0.432,0.358,0.919,0.695,1.467,1.01
				c5.13,2.964,13.453,2.964,18.587,0c0.548-0.315,1.036-0.651,1.467-1.01c1.549-1.264,2.343-2.744,2.382-4.232L362.353,184.536z"/>
		</g>
		<g id="Stand">
			<g id="XMLID_295_">
				<g id="XMLID_299_">
					<path id="XMLID_300_" style="fill:#37474F;" d="M393.875,399.973c0.02-0.728-0.056-1.454-0.21-2.178
						c-1.302-8.154-10.083-13.853-16.569-16.218h-21.097c-6.276,1.928-15.259,8.059-16.563,16.211
						c-0.155,0.726-0.231,1.456-0.212,2.187c-0.003,0.122,0.031,0.368,0.031,0.368c0.257,3.833,2.89,7.623,7.959,10.55
						c10.679,6.166,27.994,6.166,38.673,0c5.068-2.926,7.701-6.717,7.958-10.55C393.845,400.344,393.878,400.096,393.875,399.973z"
						/>
				</g>
				<g id="XMLID_296_">
					<path id="XMLID_298_" style="fill:#455A64;" d="M353.407,382.826c-7.258,4.19-7.258,10.984,0.001,15.175
						c7.258,4.191,19.026,4.191,26.284,0c7.258-4.19,7.258-10.985,0-15.175C372.433,378.635,360.665,378.635,353.407,382.826z"/>
				</g>
			</g>
			<g>
				<g>
					<path style="fill:#37474F;" d="M368.36,247.32c-1-0.577-2.621-0.577-3.621,0c-0.5,0.289-0.75,0.667-0.75,1.045v142.55
						c0,0.378,0.25,0.757,0.75,1.045c1,0.577,2.621,0.577,3.621,0c0.5-0.289,0.75-0.667,0.75-1.045v-142.55
						C369.11,247.986,368.86,247.608,368.36,247.32z"/>
					<path style="opacity:0.25;" d="M365.478,247.795c-0.267,0.071-0.52,0.165-0.739,0.292c-0.148,0.085-0.273,0.179-0.378,0.278
						h-0.372v142.55c0,0.378,0.25,0.757,0.75,1.045c0.22,0.127,0.473,0.221,0.739,0.292V247.795z"/>
					<path style="opacity:0.25;" d="M368.36,248.087c-1-0.577-2.621-0.577-3.621,0c-0.148,0.085-0.273,0.179-0.378,0.278h-0.372
						v4.308c1.585,0.535,3.571,0.52,5.121-0.061v-4.247h-0.372C368.633,248.266,368.508,248.173,368.36,248.087z"/>
				</g>
				<g>
					<path style="fill:#37474F;" d="M370.634,227.679c-0.199-0.189-0.439-0.368-0.722-0.531c-1.912-1.104-5.013-1.104-6.925,0
						c-0.283,0.163-0.523,0.342-0.722,0.531h-0.712v20.871l0,0c0,0.724,0.478,1.447,1.434,1.999c1.912,1.104,5.013,1.104,6.925,0
						c0.956-0.552,1.434-1.275,1.434-1.999l0,0v-20.871H370.634z"/>
					<path style="opacity:0.25;" d="M364.401,226.589c-0.51,0.136-0.994,0.316-1.414,0.559c-0.283,0.163-0.523,0.342-0.722,0.531
						h-0.712v20.871c0,0.724,0.478,1.447,1.434,1.999c0.42,0.243,0.904,0.422,1.414,0.559V226.589z"/>
					<path style="fill:#455A64;" d="M362.987,229.678c1.912,1.104,5.013,1.104,6.925,0c1.912-1.104,1.912-2.894,0-3.998
						c-1.912-1.104-5.013-1.104-6.925,0C361.074,226.784,361.074,228.574,362.987,229.678z"/>
				</g>
				<g>
					<path style="fill:#BA68C8;" d="M369.585,231.732c0.606-0.35,1.155-0.385,1.553-0.158c0.403,0.229,0.625,0.361,1.025,0.591
						c0.399,0.23,0.646,0.725,0.646,1.428c0,1.407-0.988,3.117-2.206,3.821c-0.609,0.352-1.161,0.385-1.56,0.154
						c-0.399-0.23-0.609-0.358-1.008-0.582c-0.405-0.228-0.657-0.724-0.657-1.434C367.379,234.146,368.367,232.436,369.585,231.732z
						"/>
					<path style="fill:#BA68C8;" d="M369.585,231.732c0.606-0.35,1.155-0.385,1.553-0.158c0.403,0.229,0.625,0.361,1.025,0.591
						c0.399,0.23,0.646,0.725,0.646,1.428c0,1.407-0.988,3.117-2.206,3.821c-0.609,0.352-1.161,0.385-1.56,0.154
						c-0.399-0.23-0.609-0.358-1.008-0.582c-0.405-0.228-0.657-0.724-0.657-1.434C367.379,234.146,368.367,232.436,369.585,231.732z
						"/>
					<path style="opacity:0.15;" d="M370.603,232.32c-1.218,0.703-2.206,2.414-2.206,3.821c0,1.407,0.988,1.977,2.206,1.274
						c1.218-0.703,2.206-2.414,2.206-3.821C372.809,232.187,371.822,231.617,370.603,232.32z"/>
				</g>
				<g>
					<path style="fill:#37474F;" d="M368.737,198.292c-0.104-0.099-0.23-0.192-0.378-0.278c-1-0.577-2.621-0.577-3.621,0
						c-0.148,0.085-0.273,0.179-0.378,0.278h-0.372v29.176l0,0c0,0.378,0.25,0.757,0.75,1.045c1,0.577,2.621,0.577,3.621,0
						c0.5-0.289,0.75-0.667,0.75-1.045l0,0v-29.176H368.737z"/>
					<path style="opacity:0.25;" d="M365.478,197.722c-0.267,0.071-0.52,0.165-0.739,0.292c-0.148,0.085-0.273,0.179-0.378,0.278
						h-0.372v29.176c0,0.378,0.25,0.757,0.75,1.045c0.22,0.127,0.473,0.221,0.739,0.292V197.722z"/>
					<path style="fill:#455A64;" d="M364.739,199.337c1,0.577,2.621,0.577,3.621,0s1-1.513,0-2.091c-1-0.577-2.621-0.577-3.621,0
						C363.739,197.824,363.739,198.76,364.739,199.337z"/>
				</g>
				<g>
					<path style="fill:#BA68C8;" d="M370.293,193.768c-0.178-0.169-0.393-0.329-0.646-0.475c-1.711-0.988-4.484-0.988-6.195,0
						c-0.253,0.146-0.468,0.306-0.646,0.475h-0.637v4.021l0,0c0,0.647,0.428,1.294,1.283,1.788c1.711,0.988,4.484,0.988,6.195,0
						c0.855-0.494,1.283-1.141,1.283-1.788l0,0v-4.021H370.293z"/>
					<path style="opacity:0.25;" d="M364.717,192.793c-0.456,0.122-0.889,0.283-1.265,0.5c-0.253,0.146-0.468,0.306-0.646,0.475
						h-0.637v4.021c0,0.647,0.428,1.294,1.283,1.788c0.376,0.217,0.809,0.378,1.265,0.499V192.793z"/>
					<path style="fill:#BA68C8;" d="M363.452,195.556c1.711,0.988,4.484,0.988,6.195,0c1.711-0.988,1.711-2.589,0-3.577
						c-1.711-0.988-4.484-0.988-6.195,0C361.741,192.967,361.741,194.569,363.452,195.556z"/>
					<path style="opacity:0.3;fill:#FFFFFF;" d="M363.452,195.556c1.711,0.988,4.484,0.988,6.195,0c1.711-0.988,1.711-2.589,0-3.577
						c-1.711-0.988-4.484-0.988-6.195,0C361.741,192.967,361.741,194.569,363.452,195.556z"/>
				</g>
				<g>
					<path style="fill:#37474F;" d="M369.505,186.318c-0.141-0.133-0.31-0.26-0.51-0.375c-1.35-0.78-3.54-0.78-4.891,0
						c-0.2,0.115-0.369,0.242-0.51,0.375h-0.503v7.224l0,0c0,0.511,0.338,1.022,1.013,1.412c1.35,0.78,3.54,0.78,4.891,0
						c0.675-0.39,1.013-0.901,1.013-1.412l0,0v-7.224H369.505z"/>
					<path style="opacity:0.25;" d="M365.103,185.549c-0.36,0.096-0.702,0.223-0.999,0.394c-0.2,0.115-0.369,0.242-0.51,0.375
						h-0.503v7.224c0,0.511,0.337,1.022,1.013,1.412c0.297,0.171,0.638,0.298,0.998,0.394V185.549z"/>
					<path style="fill:#455A64;" d="M364.104,187.73c1.35,0.78,3.54,0.78,4.891,0c1.35-0.78,1.35-2.044,0-2.824
						c-1.35-0.78-3.54-0.78-4.891,0C362.754,185.686,362.754,186.951,364.104,187.73z"/>
				</g>
				<g>
					<path style="fill:#BA68C8;" d="M368.867,188.76c0.305-0.176,0.581-0.193,0.781-0.08c0.203,0.115,0.315,0.182,0.516,0.298
						c0.201,0.116,0.325,0.365,0.325,0.718c0,0.708-0.497,1.568-1.11,1.922c-0.306,0.177-0.584,0.194-0.785,0.078
						c-0.201-0.116-0.306-0.18-0.507-0.293c-0.204-0.115-0.33-0.365-0.33-0.721C367.758,189.975,368.255,189.114,368.867,188.76z"/>
					<path style="fill:#BA68C8;" d="M368.867,188.76c0.305-0.176,0.581-0.193,0.781-0.08c0.203,0.115,0.315,0.182,0.516,0.298
						c0.201,0.116,0.325,0.365,0.325,0.718c0,0.708-0.497,1.568-1.11,1.922c-0.306,0.177-0.584,0.194-0.785,0.078
						c-0.201-0.116-0.306-0.18-0.507-0.293c-0.204-0.115-0.33-0.365-0.33-0.721C367.758,189.975,368.255,189.114,368.867,188.76z"/>
					<path style="opacity:0.15;" d="M369.38,189.056c-0.613,0.354-1.11,1.215-1.11,1.922c0,0.708,0.497,0.995,1.11,0.641
						c0.613-0.354,1.11-1.214,1.11-1.922C370.489,188.989,369.992,188.702,369.38,189.056z"/>
				</g>
			</g>
		</g>
	</g>
</g>
<g id="Musical_Notes">
	<g id="Musical_Notes_00000026877490703267201290000001243281529924795295_">
		<path id="Musical_note_00000146485657348208980820000005314200203520193967_" style="fill:#F0F0F0;" d="M402.896,150.03
			l9.429,19.236c-0.62,0.072-1.238,0.226-1.83,0.517c-2.779,1.368-3.923,4.728-2.554,7.507c1.369,2.778,4.731,3.921,7.509,2.553
			c2.778-1.368,3.922-4.729,2.555-7.507l-8.445-17.245l15.114-13.075l0.012,0l-0.008,0.004l8.405,17.075
			c-0.621,0.072-1.24,0.226-1.832,0.518c-2.78,1.367-3.923,4.728-2.554,7.507c1.369,2.778,4.731,3.921,7.509,2.553
			c2.777-1.368,3.92-4.726,2.555-7.503l0.001-0.002l-14.033-28.508L402.896,150.03z"/>
		<path id="Musical_note_00000152253252091331130000000009885978823802546834_" style="fill:#F0F0F0;" d="M247.699,74.732
			l6.885,14.987c-0.478,0.044-0.958,0.15-1.419,0.363c-2.166,0.999-3.111,3.563-2.111,5.728c1,2.164,3.565,3.109,5.729,2.11
			c2.165-0.999,3.11-3.564,2.111-5.728l-6.166-13.435l11.885-9.771l0.009,0l-0.006,0.003l6.138,13.303
			c-0.479,0.043-0.959,0.15-1.42,0.363c-2.166,0.999-3.111,3.563-2.111,5.728c1,2.165,3.565,3.109,5.73,2.11
			c2.163-0.999,3.108-3.562,2.112-5.725l0.001-0.002l-10.249-22.212L247.699,74.732z"/>
		<path id="Musical_note_00000106137007850517577580000006191928040238426255_" style="fill:#F0F0F0;" d="M116.215,81.615
			l-6.022,17.323c-0.417-0.334-0.884-0.617-1.417-0.802c-2.506-0.867-5.24,0.462-6.105,2.968c-0.865,2.506,0.464,5.24,2.97,6.105
			c2.506,0.866,5.239-0.463,6.105-2.968l5.404-15.524l17.057,1.318l0.007,0.007l-0.007-0.002l-5.324,15.397
			c-0.417-0.334-0.885-0.618-1.419-0.802c-2.506-0.867-5.239,0.461-6.105,2.968c-0.865,2.506,0.464,5.24,2.97,6.105
			c2.504,0.865,5.236-0.462,6.103-2.965l0.003,0l8.889-25.708L116.215,81.615z"/>
		<path id="Musical_note_00000128450423540616540800000008662872362051691171_" style="fill:#F0F0F0;" d="M382.244,81.273
			c1.067-0.329,2.496-0.365,3.766-0.171c1.675,0.257,3.273,0.879,4.817,1.558c2.071,0.911,4.11,1.951,6.318,2.445
			c2.208,0.494,4.666,0.377,6.537-0.895c-1.316-0.136-2.599-0.576-3.722-1.276c-2.695-1.679-4.432-5.188-6.725-7.384
			c-3.415-3.269-7.331-3.855-12.342-3.609c-0.809,4.065-1.723,8.12-2.585,12.177c-0.677,3.184-1.353,6.368-2.03,9.552
			c-0.064,0.302-1.031,4.31-1.031,4.31c-1.035-0.885-2.575-1.42-3.379-1.589c-3.775-0.796-7.479,1.618-8.274,5.393
			c-0.794,3.775,1.622,7.479,5.396,8.274c3.775,0.795,7.479-1.62,8.274-5.393L382.244,81.273z"/>
		<path id="Musical_note_00000166660947860652931260000010852564731592116915_" style="fill:#F0F0F0;" d="M63.511,148.642
			c0.246-1.202,0.965-2.597,1.823-3.717c1.132-1.478,2.574-2.689,4.043-3.817c1.971-1.513,4.049-2.929,5.689-4.794
			c1.641-1.866,2.826-4.295,2.589-6.768c-0.826,1.195-1.927,2.199-3.193,2.911c-3.04,1.709-7.335,1.53-10.661,2.58
			c-4.951,1.563-7.582,5.025-9.99,9.982c3.488,2.925,6.911,5.945,10.363,8.916c2.709,2.332,5.419,4.664,8.128,6.997
			c0.258,0.221,3.607,3.267,3.607,3.267c-1.399,0.53-2.727,1.731-3.314,2.415c-2.759,3.215-2.389,8.057,0.827,10.815
			c3.216,2.757,8.059,2.386,10.817-0.829c2.758-3.216,2.387-8.058-0.827-10.815L63.511,148.642z"/>
	</g>
</g>
<g id="Garlands_00000143617169333188218670000018274219974334607009_">
	<g id="Garlands">
		<g id="XMLID_00000132790897801091082400000007801269071034942132_">
			<path id="XMLID_00000094596014691201581330000002752050046156970429_" style="fill:#E0E0E0;" d="M77.275,90.954
				c-4.344-8.078-2.728-19.002,5.385-26.039c8.113-7.036,5.225-17.957-4.514-15.89C63.139,52.21,62.899,79.472,77.275,90.954z"/>
			<path id="XMLID_00000129924313490474208390000000601511157773877642_" style="fill:#F0F0F0;" d="M75.856,108.566
				C75.832,94.62,64.405,84.558,52.35,86.098c-12.055,1.54-11.09,10.7-4.02,11.299C55.399,97.996,68.475,95.524,75.856,108.566z"/>
			<path id="XMLID_00000138546469817202601900000007686016516559738247_" style="fill:#F0F0F0;" d="M88.759,210.883
				c1.668,8.201-2.41,24.246-13.277,26.663s-12.88-5.777-6.974-8.489C74.414,226.346,86.45,224.415,88.759,210.883z"/>
			<path id="XMLID_00000109738425306142821580000003389824271514789276_" style="fill:#E0E0E0;" d="M85.874,208.855
				c-5.226,6.537-20.156,13.691-28.976,6.899c-8.821-6.792-3.822-13.589,2.045-10.794C64.81,207.755,74.007,215.755,85.874,208.855z
				"/>
		</g>
		<g id="XMLID_00000139252525146056283550000016952732009877234364_">
			<path id="XMLID_00000012445030837311033280000014802950187623285438_" style="fill:#F0F0F0;" d="M420.223,111.13
				c8.345-3.877,19.929-4.789,26.501,3.749c6.572,8.538,17.679,6.286,16.18-3.589C460.593,96.073,431.514,91.317,420.223,111.13z"/>
			<path id="XMLID_00000132079296962237796210000003308498796624393381_" style="fill:#E0E0E0;" d="M422.587,93.75
				c8.822-4.26,20.878-19.432,15.427-31.269c-5.451-11.837-14.511-7.904-12.851-0.48C426.823,69.426,433.556,82.006,422.587,93.75z"
				/>
			<path id="XMLID_00000178197267216132910140000006554807664416129945_" style="fill:#F0F0F0;" d="M398.369,223.337
				c2.636-6.249,10.494-15.021,23.532-15.234c11.131-0.182,9.8,10.161,3.308,10.476
				C418.718,218.895,407.819,214.473,398.369,223.337z"/>
			<path id="XMLID_00000140730799644288421440000017896922958038738609_" style="fill:#E0E0E0;" d="M400.45,229.935
				c9.006-4.509,23.21-1.204,28.864,8.385c5.654,9.59-1.518,14.035-5.921,9.255C418.99,242.795,409.854,230.188,400.45,229.935z"/>
			<path id="XMLID_00000147904627748517395430000003739722818568781241_" style="fill:#F0F0F0;" d="M302.208,67.444
				c-1.723-6.244-1.024-17.471,8.623-25.348c8.237-6.725,13.36,1.816,8.681,5.895C314.833,52.069,304.045,55.206,302.208,67.444z"/>
			<path id="XMLID_00000108284195651464454160000003073462524502324146_" style="fill:#E0E0E0;" d="M310.357,65.085
				c4.082-8.71,16.686-14.64,26.601-10.799c9.915,3.842,7.169,11.419,1.04,10.442C331.867,63.751,317.556,59.708,310.357,65.085z"/>
		</g>
	</g>
</g>
</svg>
